<svg width="24" height="24" viewBox="0 0 24 24" fill="none" xmlns="http://www.w3.org/2000/svg">
<path d="M3.93934 3.93934C3.35355 4.52513 3.35355 5.47487 3.93934 6.06066L9.87917 12.0005L3.93957 17.9401C3.35378 18.5259 3.35378 19.4756 3.93957 20.0614C4.52535 20.6472 5.4751 20.6472 6.06089 20.0614L12.0005 14.1218L17.9391 20.0604C18.5249 20.6462 19.4746 20.6462 20.0604 20.0604C20.6462 19.4746 20.6462 18.5249 20.0604 17.9391L14.1218 12.0005L20.0607 6.06164C20.6464 5.47585 20.6464 4.5261 20.0607 3.94032C19.4749 3.35453 18.5251 3.35453 17.9393 3.94032L12.0005 9.87917L6.06066 3.93934C5.47487 3.35355 4.52513 3.35355 3.93934 3.93934Z" fill="#F1F3F3"/>
</svg>
