<svg width="24" height="24" viewBox="0 0 24 24" fill="none" xmlns="http://www.w3.org/2000/svg">
<path d="M15.3354 7.18604C15.2369 7.08438 15.0737 7.08471 14.9756 7.18676L14.1676 8.02738C14.0742 8.12461 14.0747 8.27844 14.1688 8.37505L16.9688 11.25H4.25C4.11193 11.25 4 11.362 4 11.5V12.5C4 12.6381 4.11193 12.75 4.25 12.75H16.9688L14.1688 15.625C14.0747 15.7216 14.0742 15.8754 14.1676 15.9727L14.9756 16.8133C15.0737 16.9153 15.2369 16.9157 15.3354 16.814L19.8314 12.174C19.9254 12.0771 19.9254 11.923 19.8314 11.8261L15.3354 7.18604Z" fill="#F1F3F3"/>
</svg>
