<svg width="24" height="24" viewBox="0 0 24 24" fill="none" xmlns="http://www.w3.org/2000/svg">
<path d="M11.0201 6.00003C10.8767 5.99777 10.76 6.11489 10.7629 6.25826L10.7862 7.43916C10.7889 7.57574 10.8995 7.68557 11.0361 7.68737L15.101 7.74107L5.99068 16.8514C5.89178 16.9503 5.89178 17.1107 5.99068 17.2096L6.70697 17.9259C6.80587 18.0248 6.96621 18.0248 7.06511 17.9259L16.1755 8.81551L16.2291 12.8804C16.2309 13.017 16.3408 13.1276 16.4773 13.1303L17.6582 13.1536C17.8016 13.1565 17.9187 13.0398 17.9165 12.8965L17.8133 6.35242C17.8112 6.21568 17.7009 6.10535 17.5641 6.10319L11.0201 6.00003Z" fill="#F1F3F3"/>
</svg>
