<svg width="24" height="24" viewBox="0 0 24 24" fill="none" xmlns="http://www.w3.org/2000/svg">
<path fill-rule="evenodd" clip-rule="evenodd" d="M7.1722 17.2627C7.0735 17.1863 7.04628 17.0488 7.10843 16.9405L7.50552 16.2489C7.58105 16.1173 7.7554 16.0828 7.87536 16.1757L12 19.3687L16.1246 16.1757C16.2446 16.0828 16.4189 16.1173 16.4945 16.2489L16.8916 16.9405C16.9537 17.0488 16.9265 17.1863 16.8278 17.2627L12.153 20.8815C12.0629 20.9513 11.9371 20.9513 11.847 20.8815L7.1722 17.2627Z" fill="#F1F3F3"/>
<path fill-rule="evenodd" clip-rule="evenodd" d="M12 12.8687L7.87536 9.67568C7.7554 9.58282 7.58105 9.61733 7.50552 9.7489L7.10843 10.4405C7.04628 10.5488 7.0735 10.6863 7.1722 10.7627L11.847 14.3815C11.9371 14.4513 12.0629 14.4513 12.153 14.3815L16.8278 10.7627C16.9265 10.6863 16.9537 10.5488 16.8916 10.4405L16.4945 9.74889C16.4189 9.61733 16.2446 9.58282 16.1246 9.67568L12 12.8687Z" fill="#F1F3F3"/>
<path fill-rule="evenodd" clip-rule="evenodd" d="M7.1722 4.2627C7.0735 4.18629 7.04628 4.04879 7.10843 3.94054L7.50552 3.2489C7.58105 3.11733 7.7554 3.08282 7.87536 3.17568L12 6.36865L16.1246 3.17568C16.2446 3.08282 16.4189 3.11733 16.4945 3.2489L16.8916 3.94054C16.9537 4.04879 16.9265 4.18629 16.8278 4.2627L12.153 7.88153C12.0629 7.95128 11.9371 7.95128 11.847 7.88153L7.1722 4.2627Z" fill="#F1F3F3"/>
</svg>
