<svg width="38" height="38" viewBox="6 3 26 26" fill="none" xmlns="http://www.w3.org/2000/svg">
<g filter="url(#filter0_d)">
<path fill-rule="evenodd" clip-rule="evenodd" d="M19 27C25.0751 27 30 22.0751 30 16C30 9.92487 25.0751 5 19 5C12.9249 5 8 9.92487 8 16C8 22.0751 12.9249 27 19 27Z" fill="#F1F3F3"/>
</g>
<path fill-rule="evenodd" clip-rule="evenodd" d="M18.904 10.2354C18.9935 10.3942 18.9813 10.5908 18.873 10.7373C18.3243 11.4796 18.0603 12.3941 18.129 13.3146C18.1976 14.235 18.5944 15.1003 19.247 15.753C19.8997 16.4056 20.765 16.8024 21.6854 16.871C22.6059 16.9397 23.5204 16.6757 24.2627 16.127C24.4092 16.0187 24.6058 16.0065 24.7646 16.096C24.9234 16.1855 25.0148 16.3599 24.998 16.5414C24.893 17.6785 24.4662 18.7621 23.7678 19.6654C23.0693 20.5688 22.1281 21.2545 21.0541 21.6425C19.9802 22.0304 18.8179 22.1044 17.7034 21.8559C16.5889 21.6074 15.5682 21.0466 14.7608 20.2392C13.9534 19.4318 13.3926 18.4111 13.1441 17.2966C12.8956 16.1821 12.9696 15.0198 13.3576 13.9459C13.7455 12.8719 14.4312 11.9307 15.3346 11.2322C16.2379 10.5338 17.3215 10.107 18.4586 10.002C18.6401 9.9852 18.8145 10.0766 18.904 10.2354ZM17.599 11.1015C16.9862 11.2786 16.4094 11.5703 15.9003 11.9639C15.1359 12.5549 14.5557 13.3514 14.2274 14.2601C13.8992 15.1688 13.8365 16.1523 14.0468 17.0953C14.2571 18.0383 14.7316 18.902 15.4148 19.5852C16.098 20.2684 16.9617 20.7429 17.9047 20.9532C18.8477 21.1635 19.8312 21.1008 20.7399 20.7726C21.6486 20.4443 22.4451 19.8641 23.0361 19.0997C23.4297 18.5906 23.7214 18.0138 23.8985 17.401C23.1864 17.7147 22.4033 17.852 21.6166 17.7934C20.4753 17.7082 19.4023 17.2163 18.593 16.407C17.7837 15.5977 17.2918 14.5247 17.2066 13.3834C17.148 12.5967 17.2853 11.8136 17.599 11.1015Z" fill="#121B25"/>
<defs>
<filter id="filter0_d" x="0" y="0" width="38" height="38" filterUnits="userSpaceOnUse" color-interpolation-filters="sRGB">
<feFlood flood-opacity="0" result="BackgroundImageFix"/>
<feColorMatrix in="SourceAlpha" type="matrix" values="0 0 0 0 0 0 0 0 0 0 0 0 0 0 0 0 0 0 127 0"/>
<feOffset dy="3"/>
<feGaussianBlur stdDeviation="4"/>
<feColorMatrix type="matrix" values="0 0 0 0 0 0 0 0 0 0 0 0 0 0 0 0 0 0 0.15 0"/>
<feBlend mode="normal" in2="BackgroundImageFix" result="effect1_dropShadow"/>
<feBlend mode="normal" in="SourceGraphic" in2="effect1_dropShadow" result="shape"/>
</filter>
</defs>
</svg>
