<svg width="38" height="38" viewBox="6 3 26 26" fill="none" xmlns="http://www.w3.org/2000/svg">
<g filter="url(#filter0_d)">
<path fill-rule="evenodd" clip-rule="evenodd" d="M19 27C25.0751 27 30 22.0751 30 16C30 9.92487 25.0751 5 19 5C12.9249 5 8 9.92487 8 16C8 22.0751 12.9249 27 19 27Z" fill="#F1F3F3"/>
</g>
<path d="M18.9997 9.3335V10.5456M18.9997 21.4548V22.6669M14.2845 11.2852L15.1451 12.1458M22.8543 19.8547L23.7149 20.7153M12.333 16.0002H13.5451M24.4542 16.0002H25.6663M14.2845 20.7153L15.1451 19.8547M22.8543 12.1458L23.7149 11.2852M22.0301 16.0002C22.0301 17.6738 20.6734 19.0306 18.9998 19.0306C17.3262 19.0306 15.9694 17.6738 15.9694 16.0002C15.9694 14.3266 17.3262 12.9699 18.9998 12.9699C20.6734 12.9699 22.0301 14.3266 22.0301 16.0002Z" stroke="#9CA9B4" stroke-width="1.5" stroke-linecap="round" stroke-linejoin="round"/>
<defs>
<filter id="filter0_d" x="0" y="0" width="38" height="38" filterUnits="userSpaceOnUse" color-interpolation-filters="sRGB">
<feFlood flood-opacity="0" result="BackgroundImageFix"/>
<feColorMatrix in="SourceAlpha" type="matrix" values="0 0 0 0 0 0 0 0 0 0 0 0 0 0 0 0 0 0 127 0"/>
<feOffset dy="3"/>
<feGaussianBlur stdDeviation="4"/>
<feColorMatrix type="matrix" values="0 0 0 0 0 0 0 0 0 0 0 0 0 0 0 0 0 0 0.15 0"/>
<feBlend mode="normal" in2="BackgroundImageFix" result="effect1_dropShadow"/>
<feBlend mode="normal" in="SourceGraphic" in2="effect1_dropShadow" result="shape"/>
</filter>
</defs>
</svg>
