<svg width="24" height="24" viewBox="0 0 24 24" fill="none" xmlns="http://www.w3.org/2000/svg">
<path d="M3.85095 3.85095C3.21635 4.48555 3.21635 5.51445 3.85095 6.14905L9.70239 12.0005L3.85118 17.8517C3.21658 18.4863 3.21658 19.5152 3.85118 20.1498C4.48578 20.7844 5.51468 20.7844 6.14928 20.1498L12.0005 14.2986L17.8507 20.1488C18.4853 20.7834 19.5142 20.7834 20.1488 20.1488C20.7834 19.5142 20.7834 18.4853 20.1488 17.8507L14.2986 12.0005L20.149 6.15002C20.7836 5.51542 20.7836 4.48653 20.149 3.85193C19.5144 3.21733 18.4856 3.21733 17.851 3.85193L12.0005 9.70239L6.14905 3.85095C5.51445 3.21635 4.48555 3.21635 3.85095 3.85095Z" fill="#F1F3F3" stroke="#F1F3F3" stroke-width="0.25"/>
</svg>
