<svg width="24" height="24" viewBox="0 0 24 24" fill="none" xmlns="http://www.w3.org/2000/svg">
<path fill-rule="evenodd" clip-rule="evenodd" d="M11.856 3.3531C11.9902 3.5913 11.972 3.88613 11.8095 4.106C10.9865 5.21939 10.5905 6.59118 10.6935 7.97187C10.7964 9.35257 11.3915 10.6504 12.3705 11.6295C13.3496 12.6085 14.6474 13.2036 16.0281 13.3065C17.4088 13.4095 18.7806 13.0135 19.894 12.1905C20.1139 12.028 20.4087 12.0098 20.6469 12.144C20.8851 12.2783 21.0222 12.5399 20.997 12.8122C20.8394 14.5177 20.1993 16.1431 19.1517 17.4981C18.104 18.8532 16.6921 19.8818 15.0812 20.4637C13.4702 21.0456 11.7269 21.1566 10.0551 20.7839C8.38337 20.4111 6.85235 19.5699 5.64121 18.3588C4.43007 17.1476 3.58891 15.6166 3.21615 13.9449C2.84338 12.2731 2.95444 10.5298 3.53633 8.91883C4.11821 7.30789 5.14685 5.89598 6.50188 4.84832C7.85692 3.80066 9.4823 3.16057 11.1878 3.00295C11.4601 2.97779 11.7217 3.11491 11.856 3.3531Z" fill="#F1F3F3"/>
</svg>
