<svg width="24" height="24" viewBox="0 0 24 24" fill="none" xmlns="http://www.w3.org/2000/svg">
<path fill-rule="evenodd" clip-rule="evenodd" d="M12.0001 1.25C12.4143 1.25 12.7501 1.58579 12.7501 2V3.8182C12.7501 4.23241 12.4143 4.5682 12.0001 4.5682C11.5859 4.5682 11.2501 4.23241 11.2501 3.8182V2C11.2501 1.58579 11.5859 1.25 12.0001 1.25ZM4.39694 4.39716C4.68983 4.10427 5.16471 4.10427 5.4576 4.39716L6.74852 5.68808C7.04142 5.98098 7.04142 6.45585 6.74852 6.74874C6.45563 7.04164 5.98076 7.04164 5.68786 6.74874L4.39694 5.45782C4.10405 5.16493 4.10405 4.69006 4.39694 4.39716ZM19.6031 4.39716C19.896 4.69006 19.896 5.16493 19.6031 5.45782L18.3122 6.74874C18.0193 7.04164 17.5444 7.04164 17.2515 6.74874C16.9587 6.45585 16.9587 5.98098 17.2515 5.68808L18.5425 4.39716C18.8354 4.10427 19.3102 4.10427 19.6031 4.39716ZM6.70464 12.0001C6.70464 9.07547 9.07551 6.70459 12.0001 6.70459C14.9248 6.70459 17.2956 9.07547 17.2956 12.0001C17.2956 14.9247 14.9248 17.2956 12.0001 17.2956C9.07551 17.2956 6.70464 14.9247 6.70464 12.0001ZM1.25 12.0001C1.25 11.5859 1.58579 11.2501 2 11.2501H3.8182C4.23241 11.2501 4.5682 11.5859 4.5682 12.0001C4.5682 12.4143 4.23241 12.7501 3.8182 12.7501H2C1.58579 12.7501 1.25 12.4143 1.25 12.0001ZM19.4318 12.0001C19.4318 11.5859 19.7676 11.2501 20.1818 11.2501H22C22.4142 11.2501 22.75 11.5859 22.75 12.0001C22.75 12.4143 22.4142 12.7501 22 12.7501H20.1818C19.7676 12.7501 19.4318 12.4143 19.4318 12.0001ZM6.74852 17.2515C7.04142 17.5444 7.04142 18.0193 6.74852 18.3122L5.4576 19.6031C5.16471 19.896 4.68984 19.896 4.39694 19.6031C4.10405 19.3102 4.10405 18.8353 4.39694 18.5424L5.68786 17.2515C5.98076 16.9586 6.45563 16.9586 6.74852 17.2515ZM17.2515 17.2515C17.5444 16.9586 18.0193 16.9586 18.3122 17.2515L19.6031 18.5424C19.896 18.8353 19.896 19.3102 19.6031 19.6031C19.3102 19.896 18.8354 19.896 18.5425 19.6031L17.2515 18.3122C16.9587 18.0193 16.9587 17.5444 17.2515 17.2515ZM12.0001 19.432C12.4143 19.432 12.7501 19.7678 12.7501 20.182V22.0002C12.7501 22.4144 12.4143 22.7502 12.0001 22.7502C11.5859 22.7502 11.2501 22.4144 11.2501 22.0002V20.182C11.2501 19.7678 11.5859 19.432 12.0001 19.432Z" fill="#F1F3F3"/>
</svg>
