<svg width="24" height="24" viewBox="0 0 24 24" fill="none" xmlns="http://www.w3.org/2000/svg">
<path d="M15.4252 7.09905C15.2774 6.94657 15.0327 6.94706 14.8855 7.10014L14.0775 7.94076C13.9373 8.0866 13.9381 8.31735 14.0792 8.46227L16.6726 11.125H4.25C4.04289 11.125 3.875 11.2929 3.875 11.5V12.5C3.875 12.7071 4.04289 12.875 4.25 12.875H16.6726L14.0792 15.5378C13.9381 15.6827 13.9373 15.9134 14.0775 16.0593L14.8855 16.8999C15.0327 17.053 15.2774 17.0535 15.4252 16.901L19.9212 12.261C20.0621 12.1156 20.0621 11.8845 19.9212 11.7391L15.4252 7.09905Z" fill="#F1F3F3" stroke="#F1F3F3" stroke-width="0.25"/>
</svg>
