<svg width="24" height="24" viewBox="0 0 24 24" fill="none" xmlns="http://www.w3.org/2000/svg">
<path d="M11.022 5.87505C10.8079 5.87167 10.6337 6.0466 10.6379 6.26073L10.6612 7.44163C10.6653 7.64563 10.8304 7.80967 11.0344 7.81236L14.8032 7.86215L5.90229 16.763C5.75458 16.9107 5.75458 17.1502 5.90229 17.298L6.61858 18.0142C6.76629 18.162 7.00579 18.162 7.1535 18.0142L16.0544 9.11336L16.1041 12.8821C16.1068 13.0861 16.2709 13.2512 16.4749 13.2553L17.6558 13.2786C17.8699 13.2829 18.0448 13.1086 18.0415 12.8945L17.9383 6.35045C17.9351 6.14621 17.7703 5.98143 17.5661 5.97821L11.022 5.87505Z" fill="#F1F3F3" stroke="#F1F3F3" stroke-width="0.25"/>
</svg>
