<svg width="24" height="24" viewBox="0 0 24 24" fill="none" xmlns="http://www.w3.org/2000/svg">
<path d="M7.00002 16.8783C6.9068 17.0407 6.94763 17.2469 7.09569 17.3615L11.7704 20.9804C11.9056 21.085 12.0944 21.085 12.2296 20.9804L16.9043 17.3615C17.0524 17.2469 17.0932 17.0407 17 16.8783L16.6029 16.1867C16.4896 15.9893 16.2281 15.9375 16.0481 16.0768L12 19.2106L7.95188 16.0768C7.77194 15.9375 7.51041 15.9893 7.39711 16.1867L7.00002 16.8783Z" fill="#F1F3F3" stroke="#F1F3F3" stroke-width="0.25"/>
<path d="M12 12.7106L7.95188 9.57684C7.77194 9.43754 7.51041 9.48931 7.39711 9.68666L7.00002 10.3783C6.9068 10.5407 6.94763 10.7469 7.09569 10.8615L11.7704 14.4804C11.9056 14.585 12.0944 14.585 12.2296 14.4804L16.9043 10.8615C17.0524 10.7469 17.0932 10.5407 17 10.3783L16.6029 9.68666C16.4896 9.48931 16.2281 9.43754 16.0481 9.57684L12 12.7106Z" fill="#F1F3F3" stroke="#F1F3F3" stroke-width="0.25"/>
<path d="M7.00002 3.8783C6.9068 4.04067 6.94763 4.24693 7.09569 4.36154L11.7704 7.98038C11.9056 8.085 12.0944 8.085 12.2296 7.98038L16.9043 4.36154C17.0524 4.24693 17.0932 4.04067 17 3.8783L16.6029 3.18666C16.4896 2.98931 16.2281 2.93754 16.0481 3.07684L12 6.21058L7.95188 3.07684C7.77194 2.93754 7.51041 2.98931 7.39711 3.18666L7.00002 3.8783Z" fill="#F1F3F3" stroke="#F1F3F3" stroke-width="0.25"/>
</svg>
