<svg width="325" height="34" viewBox="0 0 325 34" fill="none" xmlns="http://www.w3.org/2000/svg">
<path d="M102.699 14.3125H100.336C99.3333 14.3125 98.6107 14.0586 98.168 13.5508C97.7253 13.0299 97.5039 12.3464 97.5039 11.5C97.5039 9.625 98.9036 8.6875 101.703 8.6875C104.333 8.6875 106.312 9.07812 107.641 9.85938L106.508 10.7188C105.596 10.3021 103.995 10.0938 101.703 10.0938C100.583 10.0938 99.8281 10.2174 99.4375 10.4648C99.0599 10.7122 98.8711 11.0573 98.8711 11.5C98.8711 11.9427 98.9753 12.2878 99.1836 12.5352C99.3919 12.7826 99.776 12.9062 100.336 12.9062H102.758C104.516 12.9062 106.098 13.2057 107.504 13.8047C108.923 14.4036 110.089 15.224 111 16.2656C111.911 17.2943 112.608 18.4857 113.09 19.8398C113.572 21.181 113.812 22.6198 113.812 24.1562C113.812 25.4062 113.637 26.5911 113.285 27.7109C112.934 28.8307 112.4 29.8594 111.684 30.7969C110.98 31.7344 110.128 32.5482 109.125 33.2383C108.717 33.5177 108.275 33.7716 107.8 34H101.117C102.901 34 104.509 33.7461 105.941 33.2383C107.387 32.7174 108.572 32.0078 109.496 31.1094C110.434 30.2109 111.15 29.1693 111.645 27.9844C112.152 26.7995 112.406 25.5234 112.406 24.1562C112.406 22.3464 112.042 20.7122 111.312 19.2539C110.583 17.7826 109.47 16.5911 107.973 15.6797C106.488 14.7682 104.73 14.3125 102.699 14.3125Z" fill="#F2F2F2" fill-opacity="0.025"/>
<path d="M93.3547 34C91.472 33.2672 89.8798 32.2907 88.5781 31.0703L89.7109 30.2305C91.0391 31.4284 92.6992 32.3594 94.6914 33.0234C96.6966 33.6745 98.8385 34 101.117 34H93.3547Z" fill="#F2F2F2" fill-opacity="1"/>
<path d="M73.4375 34V32.5938H58.4766V31.1875H73.4375V29.7812H58.4766V28.375H73.4375V26.9688H58.4766V21.3438H66.1523V19.9375H58.4766V18.5312H66.1523V17.125H58.4766V15.7188H66.1523V14.3125H58.4766V8.6875H73.4375V7.28125H58.4766V5.875H73.4375V4.46875H58.4766V3.0625H73.4375V1.65625H57.0703V34H73.4375Z" fill="#F2F2F2" fill-opacity="1"/>
<path d="M55.6641 34V1.65625H54.2578V34H55.6641Z" fill="#F2F2F2" fill-opacity="1"/>
<path d="M52.8516 34V1.65625H51.4453V34H52.8516Z" fill="#F2F2F2" fill-opacity="1"/>
<path d="M50.0391 34V1.65625H48.6328V34H50.0391Z" fill="#F2F2F2" fill-opacity="1"/>
<path fill-rule="evenodd" clip-rule="evenodd" d="M9.07031 10.0938V25.5625H18.6602C20.2096 25.5625 21.5378 24.8073 22.6445 23.2969C23.7643 21.7865 24.3242 19.9635 24.3242 17.8281C24.3242 15.7057 23.7643 13.8893 22.6445 12.3789C21.5378 10.8555 20.2096 10.0938 18.6602 10.0938H9.07031ZM18.6602 24.1562H10.4766V11.5H18.6602C19.819 11.5 20.8086 12.1185 21.6289 13.3555C22.4622 14.5794 22.8789 16.0703 22.8789 17.8281C22.8789 19.5729 22.4622 21.0638 21.6289 22.3008C20.8086 23.5378 19.819 24.1562 18.6602 24.1562Z" fill="#F2F2F2" fill-opacity="1"/>
<path fill-rule="evenodd" clip-rule="evenodd" d="M6.25781 7.28125V28.375H18.6602C20.1836 28.375 21.6029 27.9062 22.918 26.9688C24.2331 26.0312 25.2747 24.7487 26.043 23.1211C26.8242 21.4935 27.2148 19.7292 27.2148 17.8281C27.2148 15.9141 26.8242 14.1497 26.043 12.5352C25.2747 10.9076 24.2331 9.625 22.918 8.6875C21.6029 7.75 20.1836 7.28125 18.6602 7.28125H6.25781ZM18.6602 26.9688H7.66406V8.6875H18.6602C19.9362 8.6875 21.1146 9.09766 22.1953 9.91797C23.2891 10.7253 24.1549 11.832 24.793 13.2383C25.444 14.6445 25.7695 16.1745 25.7695 17.8281C25.7695 20.3411 25.0664 22.4961 23.6602 24.293C22.2669 26.0768 20.6003 26.9688 18.6602 26.9688Z" fill="#F2F2F2" fill-opacity="1"/>
<path fill-rule="evenodd" clip-rule="evenodd" d="M3.44531 4.46875V31.1875H18.6602C20.6914 31.1875 22.5859 30.5951 24.3438 29.4102C26.1016 28.2122 27.5013 26.5846 28.543 24.5273C29.5846 22.4701 30.1055 20.237 30.1055 17.8281C30.1055 15.4193 29.5846 13.1862 28.543 11.1289C27.5013 9.07161 26.1016 7.45052 24.3438 6.26562C22.5859 5.06771 20.6914 4.46875 18.6602 4.46875H3.44531ZM18.6602 29.7812H4.85156V5.875H18.6602C20.431 5.875 22.0846 6.40885 23.6211 7.47656C25.1576 8.54427 26.3815 10.0026 27.293 11.8516C28.2044 13.6875 28.6602 15.6797 28.6602 17.8281C28.6602 19.9896 28.2044 21.9883 27.293 23.8242C26.3815 25.6602 25.1576 27.112 23.6211 28.1797C22.0977 29.2474 20.444 29.7812 18.6602 29.7812Z" fill="#F2F2F2" fill-opacity="1"/>
<path fill-rule="evenodd" clip-rule="evenodd" d="M18.6602 34C20.5612 34 22.3906 33.5768 24.1484 32.7305C25.9193 31.8711 27.4492 30.7188 28.7383 29.2734C30.0273 27.8281 31.056 26.1094 31.8242 24.1172C32.6055 22.112 32.9961 20.0156 32.9961 17.8281C32.9961 14.9115 32.3385 12.2096 31.0234 9.72266C29.7214 7.23568 27.9701 5.26953 25.7695 3.82422C23.569 2.37891 21.1992 1.65625 18.6602 1.65625H0.632812V34H18.6602ZM18.6602 32.5938H2.03906V3.0625H18.6602C20.3659 3.0625 22.013 3.45312 23.6016 4.23438C25.1901 5.01562 26.5638 6.07031 27.7227 7.39844C28.8815 8.71354 29.806 10.2826 30.4961 12.1055C31.1992 13.9284 31.5508 15.8359 31.5508 17.8281C31.5508 19.8203 31.1992 21.7344 30.4961 23.5703C29.806 25.3932 28.8815 26.9622 27.7227 28.2773C26.5638 29.5924 25.1901 30.6406 23.6016 31.4219C22.013 32.2031 20.3659 32.5938 18.6602 32.5938Z" fill="#F2F2F2" fill-opacity="1"/>
<path d="M322.461 34L318.828 23.3359C320.534 22.3464 321.882 20.9727 322.871 19.2148C323.874 17.457 324.375 15.4193 324.375 13.1016C324.375 11.0964 323.841 9.21484 322.773 7.45703C321.719 5.6862 320.293 4.27995 318.496 3.23828C316.699 2.18359 314.779 1.65625 312.734 1.65625H293.633V34H295.039V3.0625H312.734C314.544 3.0625 316.237 3.52474 317.812 4.44922C319.388 5.3737 320.638 6.61068 321.562 8.16016C322.5 9.69661 322.969 11.3438 322.969 13.1016C322.969 15.0417 322.5 16.819 321.562 18.4336C320.625 20.0352 319.375 21.2852 317.812 22.1836C316.25 23.082 314.557 23.5312 312.734 23.5312H304.258V24.9375H309.434L312.305 34H313.789L310.938 24.9375H312.207L315.195 34H316.68L313.652 24.8984C314.368 24.8333 314.785 24.7878 314.902 24.7617L318.086 34H319.57L316.309 24.4297C316.582 24.3516 316.979 24.2083 317.5 24L320.977 34H322.461Z" fill="#F2F2F2" fill-opacity="1"/>
<path d="M303.477 34V11.5H312.734C313.242 11.5 313.665 11.6562 314.004 11.9688C314.355 12.2682 314.531 12.6458 314.531 13.1016C314.531 13.8438 314.368 14.3646 314.043 14.6641C313.73 14.9505 313.294 15.0938 312.734 15.0938H304.258V16.5H312.734C314.87 16.5 315.938 15.3672 315.938 13.1016C315.938 12.2812 315.618 11.5781 314.98 10.9922C314.355 10.3932 313.607 10.0938 312.734 10.0938H302.07V34H303.477Z" fill="#F2F2F2" fill-opacity="1"/>
<path d="M300.664 34V8.6875H312.734C313.932 8.6875 315 9.14323 315.938 10.0547C316.875 10.9531 317.344 11.9688 317.344 13.1016C317.344 14.638 316.895 15.8229 315.996 16.6562C315.111 17.4896 314.023 17.9062 312.734 17.9062H304.258V19.3125H312.734C314.401 19.3125 315.82 18.7461 316.992 17.6133C318.164 16.4805 318.75 14.9766 318.75 13.1016C318.75 11.5781 318.145 10.2305 316.934 9.05859C315.723 7.8737 314.323 7.28125 312.734 7.28125H299.258V34H300.664Z" fill="#F2F2F2" fill-opacity="1"/>
<path d="M297.852 34V5.875H312.734C314.701 5.875 316.426 6.60417 317.91 8.0625C319.408 9.50781 320.156 11.1875 320.156 13.1016C320.156 15.3281 319.427 17.1576 317.969 18.5898C316.51 20.0091 314.766 20.7188 312.734 20.7188H304.258V22.125H312.734C315.143 22.125 317.214 21.2656 318.945 19.5469C320.69 17.8151 321.562 15.6667 321.562 13.1016C321.562 11.6042 321.159 10.1914 320.352 8.86328C319.544 7.52214 318.457 6.45443 317.09 5.66016C315.736 4.86589 314.284 4.46875 312.734 4.46875H296.445V34H297.852Z" fill="#F2F2F2" fill-opacity="1"/>
<path d="M277.438 34V32.5938H262.477V31.1875H277.438V29.7812H262.477V28.375H277.438V26.9688H262.477V21.3438H270.152V19.9375H262.477V18.5312H270.152V17.125H262.477V15.7188H270.152V14.3125H262.477V8.6875H277.438V7.28125H262.477V5.875H277.438V4.46875H262.477V3.0625H277.438V1.65625H261.07V34H277.438Z" fill="#F2F2F2" fill-opacity="1"/>
<path d="M259.664 34V1.65625H258.258V34H259.664Z" fill="#F2F2F2" fill-opacity="1"/>
<path d="M256.852 34V1.65625H255.445V34H256.852Z" fill="#F2F2F2" fill-opacity="1"/>
<path d="M254.039 34V1.65625H252.633V34H254.039Z" fill="#F2F2F2" fill-opacity="1"/>
<path d="M236.039 34V1.65625H234.633V31.7148L216.195 1.65625H214.555L234.379 34H236.039Z" fill="#F2F2F2" fill-opacity="1"/>
<path d="M232.777 34L212.914 1.65625H211.254L231.098 34H232.777Z" fill="#F2F2F2" fill-opacity="1"/>
<path d="M229.457 34L209.574 1.65625H207.934L227.816 34H229.457Z" fill="#F2F2F2" fill-opacity="1"/>
<path d="M226.137 34L206.312 1.65625H204.633V34H206.039V3.94141L224.516 34H226.137Z" fill="#F2F2F2" fill-opacity="1"/>
<path d="M214.477 34V19.5469L213.07 17.2227V34H214.477Z" fill="#F2F2F2" fill-opacity="1"/>
<path d="M211.664 34V14.9766L210.258 12.6133V34H211.664Z" fill="#F2F2F2" fill-opacity="1"/>
<path d="M208.852 34V10.3281L207.445 7.94531V34H208.852Z" fill="#F2F2F2" fill-opacity="1"/>
<path d="M188.504 34V17.1055H187.098V34H188.504Z" fill="#F2F2F2" fill-opacity="1"/>
<path d="M185.691 34V17.1055H184.285V34H185.691Z" fill="#F2F2F2" fill-opacity="1"/>
<path d="M182.879 34V17.1055H181.473V34H182.879Z" fill="#F2F2F2" fill-opacity="1"/>
<path d="M180.066 34V17.1055H178.66V24.2148C176.798 25.1133 174.786 25.5625 172.625 25.5625C171.57 25.5625 170.581 25.4128 169.656 25.1133C168.745 24.8008 167.911 24.3451 167.156 23.7461C166.414 23.1341 165.828 22.3268 165.398 21.3242C164.969 20.3086 164.754 19.1432 164.754 17.8281C164.754 15.6927 165.509 13.8698 167.02 12.3594C168.53 10.849 170.353 10.0938 172.488 10.0938C173.803 10.0938 175.021 10.3997 176.141 11.0117C177.273 11.6107 178.191 12.431 178.895 13.4727L180.047 12.7109C179.214 11.474 178.133 10.4974 176.805 9.78125C175.477 9.05208 174.038 8.6875 172.488 8.6875C171.251 8.6875 170.066 8.92839 168.934 9.41016C167.814 9.89193 166.844 10.543 166.023 11.3633C165.203 12.1836 164.552 13.1602 164.07 14.293C163.589 15.4128 163.348 16.5911 163.348 17.8281C163.348 19.3255 163.602 20.6732 164.109 21.8711C164.63 23.056 165.327 24.013 166.199 24.7422C167.085 25.4714 168.074 26.0247 169.168 26.4023C170.262 26.7799 171.427 26.9688 172.664 26.9688C174.812 26.9688 176.811 26.5586 178.66 25.7383V27.0859C176.746 27.9583 174.689 28.3945 172.488 28.3945C171.382 28.3945 170.314 28.2513 169.285 27.9648C168.257 27.6654 167.293 27.2227 166.395 26.6367C165.509 26.0508 164.734 25.3411 164.07 24.5078C163.406 23.6745 162.885 22.6849 162.508 21.5391C162.13 20.3932 161.941 19.1562 161.941 17.8281C161.941 15.9141 162.41 14.1497 163.348 12.5352C164.298 10.9206 165.581 9.64453 167.195 8.70703C168.81 7.75651 170.574 7.28125 172.488 7.28125C174.272 7.28125 175.926 7.69792 177.449 8.53125C178.986 9.35156 180.236 10.4648 181.199 11.8711L182.371 11.1094C181.277 9.49479 179.858 8.21875 178.113 7.28125C176.382 6.34375 174.507 5.875 172.488 5.875C170.327 5.875 168.328 6.40885 166.492 7.47656C164.656 8.54427 163.204 9.99609 162.137 11.832C161.069 13.668 160.535 15.6667 160.535 17.8281C160.535 19.6771 160.867 21.3698 161.531 22.9062C162.195 24.4427 163.087 25.7057 164.207 26.6953C165.34 27.6849 166.629 28.4531 168.074 29C169.52 29.5339 171.036 29.8008 172.625 29.8008C174.721 29.8008 176.733 29.4297 178.66 28.6875V30.0938C176.707 30.8229 174.65 31.1875 172.488 31.1875C171.095 31.1875 169.734 30.9922 168.406 30.6016C167.091 30.2109 165.874 29.638 164.754 28.8828C163.634 28.1146 162.651 27.2031 161.805 26.1484C160.971 25.0807 160.314 23.8372 159.832 22.418C159.363 20.9857 159.129 19.4557 159.129 17.8281C159.129 16.0182 159.48 14.2865 160.184 12.6328C160.887 10.9792 161.831 9.5599 163.016 8.375C164.214 7.17708 165.639 6.22656 167.293 5.52344C168.947 4.82031 170.678 4.46875 172.488 4.46875C174.741 4.46875 176.837 4.99609 178.777 6.05078C180.73 7.09245 182.319 8.51172 183.543 10.3086L184.715 9.54688C183.361 7.55469 181.609 5.97917 179.461 4.82031C177.312 3.64844 174.988 3.0625 172.488 3.0625C169.819 3.0625 167.352 3.72656 165.086 5.05469C162.82 6.36979 161.023 8.16016 159.695 10.4258C158.38 12.6914 157.723 15.1589 157.723 17.8281C157.723 19.599 157.983 21.2721 158.504 22.8477C159.038 24.4102 159.767 25.7839 160.691 26.9688C161.629 28.1406 162.716 29.1562 163.953 30.0156C165.203 30.862 166.557 31.5065 168.016 31.9492C169.487 32.3789 170.997 32.5938 172.547 32.5938C174.682 32.5938 176.72 32.2682 178.66 31.6172V32.9648C176.629 33.6549 174.513 34 172.312 34C170.216 34 168.198 33.6094 166.258 32.8281C164.318 32.0339 162.612 30.9466 161.141 29.5664C159.682 28.1862 158.51 26.474 157.625 24.4297C156.753 22.3854 156.316 20.1849 156.316 17.8281C156.316 15.6406 156.74 13.5508 157.586 11.5586C158.445 9.55339 159.598 7.82812 161.043 6.38281C162.488 4.9375 164.207 3.79167 166.199 2.94531C168.204 2.08594 170.301 1.65625 172.488 1.65625C175.21 1.65625 177.742 2.28776 180.086 3.55078C182.443 4.8138 184.363 6.53255 185.848 8.70703L187.02 7.94531C185.405 5.57552 183.322 3.70052 180.77 2.32031C178.217 0.940104 175.457 0.25 172.488 0.25C170.105 0.25 167.827 0.71875 165.652 1.65625C163.491 2.58073 161.622 3.83073 160.047 5.40625C158.484 6.96875 157.234 8.83724 156.297 11.0117C155.372 13.1732 154.91 15.4453 154.91 17.8281C154.91 20.4062 155.385 22.8086 156.336 25.0352C157.299 27.2487 158.582 29.1107 160.184 30.6211C161.701 32.0395 163.445 33.1658 165.418 34H172.312H180.066Z" fill="#F2F2F2" fill-opacity="1"/>
<path d="M139.477 34V1.65625H138.07V34H139.477Z" fill="#F2F2F2" fill-opacity="1"/>
<path d="M136.664 34V1.65625H135.258V34H136.664Z" fill="#F2F2F2" fill-opacity="1"/>
<path d="M133.852 34V1.65625H132.445V34H133.852Z" fill="#F2F2F2" fill-opacity="1"/>
<path d="M131.039 34V1.65625H129.633V34H131.039Z" fill="#F2F2F2" fill-opacity="1"/>
<path d="M100.336 15.7188H102.562C105.206 15.7188 107.27 16.526 108.754 18.1406C110.251 19.7552 111 21.7604 111 24.1562C111 26.5911 110.134 28.6094 108.402 30.2109C106.671 31.7995 104.242 32.5938 101.117 32.5938C99.0339 32.5938 97.0872 32.3073 95.2773 31.7344C93.4674 31.1615 91.9635 30.3542 90.7656 29.3125L91.8594 28.4336C92.9271 29.306 94.2682 29.9831 95.8828 30.4648C97.5104 30.9466 99.2552 31.1875 101.117 31.1875C103.865 31.1875 105.961 30.5299 107.406 29.2148C108.865 27.8997 109.594 26.2135 109.594 24.1562C109.594 22.125 108.982 20.4453 107.758 19.1172C106.547 17.7891 104.809 17.125 102.543 17.125H100.336C98.4349 17.125 97.0091 16.6042 96.0586 15.5625C95.1081 14.5208 94.6328 13.1667 94.6328 11.5C94.6328 9.83333 95.2188 8.47917 96.3906 7.4375C97.5755 6.39583 99.3464 5.875 101.703 5.875C103.357 5.875 104.893 6.07031 106.312 6.46094C107.732 6.83854 108.904 7.38542 109.828 8.10156L108.715 8.96094C107.087 7.84115 104.75 7.28125 101.703 7.28125C99.737 7.28125 98.2982 7.67188 97.3867 8.45312C96.4883 9.22135 96.0391 10.237 96.0391 11.5C96.0391 12.776 96.3711 13.7982 97.0352 14.5664C97.7122 15.3346 98.8125 15.7188 100.336 15.7188Z" fill="#F2F2F2" fill-opacity="1"/>
<path d="M100.336 18.5312H102.484C104.385 18.5312 105.811 19.0586 106.762 20.1133C107.712 21.168 108.188 22.5156 108.188 24.1562C108.188 25.8229 107.595 27.1771 106.41 28.2188C105.238 29.2604 103.474 29.7812 101.117 29.7812C99.4635 29.7812 97.9206 29.5924 96.4883 29.2148C95.069 28.8242 93.8971 28.2708 92.9727 27.5547L94.0859 26.6953C95.7135 27.8151 98.0573 28.375 101.117 28.375C103.083 28.375 104.516 27.9909 105.414 27.2227C106.326 26.4414 106.781 25.4193 106.781 24.1562C106.781 22.8932 106.443 21.8776 105.766 21.1094C105.089 20.3281 103.988 19.9375 102.465 19.9375H100.336C97.6667 19.9375 95.5768 19.1432 94.0664 17.5547C92.569 15.9531 91.8203 13.9349 91.8203 11.5C91.8203 9.0651 92.6862 7.05339 94.418 5.46484C96.1497 3.86328 98.5781 3.0625 101.703 3.0625C103.786 3.0625 105.727 3.34896 107.523 3.92188C109.333 4.49479 110.837 5.30208 112.035 6.34375L110.941 7.22266C109.874 6.35026 108.533 5.67318 106.918 5.19141C105.303 4.70964 103.565 4.46875 101.703 4.46875C98.9557 4.46875 96.8529 5.1263 95.3945 6.44141C93.9492 7.75651 93.2266 9.44271 93.2266 11.5C93.2266 13.5443 93.8385 15.2305 95.0625 16.5586C96.2865 17.8737 98.0443 18.5312 100.336 18.5312Z" fill="#F2F2F2" fill-opacity="1"/>
<path d="M100.336 21.3438H102.484C103.487 21.3438 104.21 21.6042 104.652 22.125C105.095 22.6458 105.316 23.3229 105.316 24.1562C105.316 26.0312 103.917 26.9688 101.117 26.9688C98.474 26.9688 96.4883 26.5781 95.1602 25.7969L96.293 24.9375C97.2044 25.3542 98.8125 25.5625 101.117 25.5625C102.237 25.5625 102.986 25.4388 103.363 25.1914C103.754 24.944 103.949 24.599 103.949 24.1562C103.949 23.7266 103.839 23.388 103.617 23.1406C103.409 22.8802 103.018 22.75 102.445 22.75H100.336C98.5391 22.75 96.9115 22.457 95.4531 21.8711C94.0078 21.2852 92.8164 20.4779 91.8789 19.4492C90.9544 18.4206 90.2448 17.2292 89.75 15.875C89.2552 14.5208 89.0078 13.0625 89.0078 11.5C89.0078 10.25 89.1836 9.0651 89.5352 7.94531C89.8867 6.82552 90.4141 5.79688 91.1172 4.85938C91.8333 3.92188 92.6862 3.11458 93.6758 2.4375C94.6784 1.7474 95.8633 1.21354 97.2305 0.835938C98.6107 0.445312 100.102 0.25 101.703 0.25C104.216 0.25 106.566 0.634115 108.754 1.40234C110.941 2.15755 112.764 3.21875 114.223 4.58594L113.09 5.42578C111.762 4.22786 110.102 3.30339 108.109 2.65234C106.117 1.98828 103.982 1.65625 101.703 1.65625C99.9193 1.65625 98.3047 1.91667 96.8594 2.4375C95.4271 2.94531 94.2422 3.64844 93.3047 4.54688C92.3802 5.44531 91.6641 6.48698 91.1562 7.67188C90.6615 8.85677 90.4141 10.1328 90.4141 11.5C90.4141 13.3359 90.7852 14.9896 91.5273 16.4609C92.2695 17.9323 93.4023 19.1172 94.9258 20.0156C96.4492 20.901 98.2526 21.3438 100.336 21.3438Z" fill="#F2F2F2" fill-opacity="1"/>
<path d="M226.195 16.1094L227.602 18.4336V1.65625H226.195V16.1094Z" fill="#F2F2F2" fill-opacity="1"/>
<path d="M229.008 20.6797L230.414 23.043V1.65625H229.008V20.6797Z" fill="#F2F2F2" fill-opacity="1"/>
<path d="M231.82 25.3281L233.227 27.7109V1.65625H231.82V25.3281Z" fill="#F2F2F2" fill-opacity="1"/>
</svg>
