<svg width="925" height="108" viewBox="0 0 925 108" fill="none" xmlns="http://www.w3.org/2000/svg">
<path d="M295.438 45H287.875C284.667 45 282.354 44.1875 280.938 42.5625C279.521 40.8958 278.812 38.7083 278.812 36C278.812 30 283.292 27 292.25 27C300.667 27 307 28.25 311.25 30.75L307.625 33.5C304.708 32.1667 299.583 31.5 292.25 31.5C288.667 31.5 286.25 31.8958 285 32.6875C283.792 33.4792 283.188 34.5833 283.188 36C283.188 37.4167 283.521 38.5208 284.188 39.3125C284.854 40.1042 286.083 40.5 287.875 40.5H295.625C301.25 40.5 306.312 41.4583 310.812 43.375C315.354 45.2917 319.083 47.9167 322 51.25C324.917 54.5417 327.146 58.3542 328.688 62.6875C330.229 66.9792 331 71.5833 331 76.5C331 80.5 330.438 84.2917 329.312 87.875C328.188 91.4583 326.479 94.75 324.188 97.75C321.938 100.75 319.208 103.354 316 105.562C314.693 106.457 313.28 107.269 311.76 108H290.375C296.083 108 301.229 107.188 305.812 105.562C310.438 103.896 314.229 101.625 317.188 98.75C320.188 95.875 322.479 92.5417 324.062 88.75C325.688 84.9583 326.5 80.875 326.5 76.5C326.5 70.7083 325.333 65.4792 323 60.8125C320.667 56.1042 317.104 52.2917 312.312 49.375C307.562 46.4583 301.938 45 295.438 45Z" fill="#F2F2F2" fill-opacity="1"/>
<path d="M265.535 108C259.511 105.655 254.415 102.53 250.25 98.625L253.875 95.9375C258.125 99.7708 263.438 102.75 269.812 104.875C276.229 106.958 283.083 108 290.375 108H265.535Z" fill="#F2F2F2" fill-opacity="1"/>
<path d="M218 108V103.5H170.125V99H218V94.5H170.125V90H218V85.5H170.125V67.5H194.688V63H170.125V58.5H194.688V54H170.125V49.5H194.688V45H170.125V27H218V22.5H170.125V18H218V13.5H170.125V9H218V4.5H165.625V108H218Z" fill="#F2F2F2" fill-opacity="1"/>
<path d="M161.125 108V4.5H156.625V108H161.125Z" fill="#F2F2F2" fill-opacity="1"/>
<path d="M152.125 108V4.5H147.625V108H152.125Z" fill="#F2F2F2" fill-opacity="1"/>
<path d="M143.125 108V4.5H138.625V108H143.125Z" fill="#F2F2F2" fill-opacity="1"/>
<path fill-rule="evenodd" clip-rule="evenodd" d="M27.625 31.5V81H58.3125C63.2708 81 67.5208 78.5833 71.0625 73.75C74.6458 68.9167 76.4375 63.0833 76.4375 56.25C76.4375 49.4583 74.6458 43.6458 71.0625 38.8125C67.5208 33.9375 63.2708 31.5 58.3125 31.5H27.625ZM58.3125 76.5H32.125V36H58.3125C62.0208 36 65.1875 37.9792 67.8125 41.9375C70.4792 45.8542 71.8125 50.625 71.8125 56.25C71.8125 61.8333 70.4792 66.6042 67.8125 70.5625C65.1875 74.5208 62.0208 76.5 58.3125 76.5Z" fill="#F2F2F2" fill-opacity="1"/>
<path fill-rule="evenodd" clip-rule="evenodd" d="M18.625 22.5V90H58.3125C63.1875 90 67.7292 88.5 71.9375 85.5C76.1458 82.5 79.4792 78.3958 81.9375 73.1875C84.4375 67.9792 85.6875 62.3333 85.6875 56.25C85.6875 50.125 84.4375 44.4792 81.9375 39.3125C79.4792 34.1042 76.1458 30 71.9375 27C67.7292 24 63.1875 22.5 58.3125 22.5H18.625ZM58.3125 85.5H23.125V27H58.3125C62.3958 27 66.1667 28.3125 69.625 30.9375C73.125 33.5208 75.8958 37.0625 77.9375 41.5625C80.0208 46.0625 81.0625 50.9583 81.0625 56.25C81.0625 64.2917 78.8125 71.1875 74.3125 76.9375C69.8542 82.6458 64.5208 85.5 58.3125 85.5Z" fill="#F2F2F2" fill-opacity="1"/>
<path fill-rule="evenodd" clip-rule="evenodd" d="M9.625 13.5V99H58.3125C64.8125 99 70.875 97.1042 76.5 93.3125C82.125 89.4792 86.6042 84.2708 89.9375 77.6875C93.2708 71.1042 94.9375 63.9583 94.9375 56.25C94.9375 48.5417 93.2708 41.3958 89.9375 34.8125C86.6042 28.2292 82.125 23.0417 76.5 19.25C70.875 15.4167 64.8125 13.5 58.3125 13.5H9.625ZM58.3125 94.5H14.125V18H58.3125C63.9792 18 69.2708 19.7083 74.1875 23.125C79.1042 26.5417 83.0208 31.2083 85.9375 37.125C88.8542 43 90.3125 49.375 90.3125 56.25C90.3125 63.1667 88.8542 69.5625 85.9375 75.4375C83.0208 81.3125 79.1042 85.9583 74.1875 89.375C69.3125 92.7917 64.0208 94.5 58.3125 94.5Z" fill="#F2F2F2" fill-opacity="1"/>
<path fill-rule="evenodd" clip-rule="evenodd" d="M58.3125 108C64.3958 108 70.25 106.646 75.875 103.938C81.5417 101.188 86.4375 97.5 90.5625 92.875C94.6875 88.25 97.9792 82.75 100.438 76.375C102.938 69.9583 104.188 63.25 104.188 56.25C104.188 46.9167 102.083 38.2708 97.875 30.3125C93.7083 22.3542 88.1042 16.0625 81.0625 11.4375C74.0208 6.8125 66.4375 4.5 58.3125 4.5H0.625V108H58.3125ZM58.3125 103.5H5.125V9H58.3125C63.7708 9 69.0417 10.25 74.125 12.75C79.2083 15.25 83.6042 18.625 87.3125 22.875C91.0208 27.0833 93.9792 32.1042 96.1875 37.9375C98.4375 43.7708 99.5625 49.875 99.5625 56.25C99.5625 62.625 98.4375 68.75 96.1875 74.625C93.9792 80.4583 91.0208 85.4792 87.3125 89.6875C83.6042 93.8958 79.2083 97.25 74.125 99.75C69.0417 102.25 63.7708 103.5 58.3125 103.5Z" fill="#F2F2F2" fill-opacity="1"/>
<path d="M918.875 108L907.25 73.875C912.708 70.7083 917.021 66.3125 920.188 60.6875C923.396 55.0625 925 48.5417 925 41.125C925 34.7083 923.292 28.6875 919.875 23.0625C916.5 17.3958 911.938 12.8958 906.188 9.5625C900.438 6.1875 894.292 4.5 887.75 4.5H826.625V108H831.125V9H887.75C893.542 9 898.958 10.4792 904 13.4375C909.042 16.3958 913.042 20.3542 916 25.3125C919 30.2292 920.5 35.5 920.5 41.125C920.5 47.3333 919 53.0208 916 58.1875C913 63.3125 909 67.3125 904 70.1875C899 73.0625 893.583 74.5 887.75 74.5H860.625V79H877.188L886.375 108H891.125L882 79H886.062L895.625 108H900.375L890.688 78.875C892.979 78.6667 894.312 78.5208 894.688 78.4375L904.875 108H909.625L899.188 77.375C900.062 77.125 901.333 76.6667 903 76L914.125 108H918.875Z" fill="#F2F2F2" fill-opacity="1"/>
<path d="M858.125 108V36H887.75C889.375 36 890.729 36.5 891.812 37.5C892.938 38.4583 893.5 39.6667 893.5 41.125C893.5 43.5 892.979 45.1667 891.938 46.125C890.938 47.0417 889.542 47.5 887.75 47.5H860.625V52H887.75C894.583 52 898 48.375 898 41.125C898 38.5 896.979 36.25 894.938 34.375C892.938 32.4583 890.542 31.5 887.75 31.5H853.625V108H858.125Z" fill="#F2F2F2" fill-opacity="1"/>
<path d="M849.125 108V27H887.75C891.583 27 895 28.4583 898 31.375C901 34.25 902.5 37.5 902.5 41.125C902.5 46.0417 901.062 49.8333 898.188 52.5C895.354 55.1667 891.875 56.5 887.75 56.5H860.625V61H887.75C893.083 61 897.625 59.1875 901.375 55.5625C905.125 51.9375 907 47.125 907 41.125C907 36.25 905.062 31.9375 901.188 28.1875C897.312 24.3958 892.833 22.5 887.75 22.5H844.625V108H849.125Z" fill="#F2F2F2" fill-opacity="1"/>
<path d="M840.125 108V18H887.75C894.042 18 899.562 20.3333 904.312 25C909.104 29.625 911.5 35 911.5 41.125C911.5 48.25 909.167 54.1042 904.5 58.6875C899.833 63.2292 894.25 65.5 887.75 65.5H860.625V70H887.75C895.458 70 902.083 67.25 907.625 61.75C913.208 56.2083 916 49.3333 916 41.125C916 36.3333 914.708 31.8125 912.125 27.5625C909.542 23.2708 906.062 19.8542 901.688 17.3125C897.354 14.7708 892.708 13.5 887.75 13.5H835.625V108H840.125Z" fill="#F2F2F2" fill-opacity="1"/>
<path d="M791 108V103.5H743.125V99H791V94.5H743.125V90H791V85.5H743.125V67.5H767.688V63H743.125V58.5H767.688V54H743.125V49.5H767.688V45H743.125V27H791V22.5H743.125V18H791V13.5H743.125V9H791V4.5H738.625V108H791Z" fill="#F2F2F2" fill-opacity="1"/>
<path d="M734.125 108V4.5H729.625V108H734.125Z" fill="#F2F2F2" fill-opacity="1"/>
<path d="M725.125 108V4.5H720.625V108H725.125Z" fill="#F2F2F2" fill-opacity="1"/>
<path d="M716.125 108V4.5H711.625V108H716.125Z" fill="#F2F2F2" fill-opacity="1"/>
<path d="M675.125 108V4.5H670.625V100.688L611.625 4.5H606.375L669.812 108H675.125Z" fill="#F2F2F2" fill-opacity="1"/>
<path d="M664.688 108L601.125 4.5H595.812L659.312 108H664.688Z" fill="#F2F2F2" fill-opacity="1"/>
<path d="M654.062 108L590.438 4.5H585.188L648.812 108H654.062Z" fill="#F2F2F2" fill-opacity="1"/>
<path d="M643.438 108L580 4.5H574.625V108H579.125V11.8125L638.25 108H643.438Z" fill="#F2F2F2" fill-opacity="1"/>
<path d="M606.125 108V61.75L601.625 54.3125V108H606.125Z" fill="#F2F2F2" fill-opacity="1"/>
<path d="M597.125 108V47.125L592.625 39.5625V108H597.125Z" fill="#F2F2F2" fill-opacity="1"/>
<path d="M588.125 108V32.25L583.625 24.625V108H588.125Z" fill="#F2F2F2" fill-opacity="1"/>
<path d="M538.812 108V53.9375H534.312V108H538.812Z" fill="#F2F2F2" fill-opacity="1"/>
<path d="M529.812 108V53.9375H525.312V108H529.812Z" fill="#F2F2F2" fill-opacity="1"/>
<path d="M520.812 108V53.9375H516.312V108H520.812Z" fill="#F2F2F2" fill-opacity="1"/>
<path d="M511.812 108V53.9375H507.312V76.6875C501.354 79.5625 494.917 81 488 81C484.625 81 481.458 80.5208 478.5 79.5625C475.583 78.5625 472.917 77.1042 470.5 75.1875C468.125 73.2292 466.25 70.6458 464.875 67.4375C463.5 64.1875 462.812 60.4583 462.812 56.25C462.812 49.4167 465.229 43.5833 470.062 38.75C474.896 33.9167 480.729 31.5 487.562 31.5C491.771 31.5 495.667 32.4792 499.25 34.4375C502.875 36.3542 505.812 38.9792 508.062 42.3125L511.75 39.875C509.083 35.9167 505.625 32.7917 501.375 30.5C497.125 28.1667 492.521 27 487.562 27C483.604 27 479.812 27.7708 476.188 29.3125C472.604 30.8542 469.5 32.9375 466.875 35.5625C464.25 38.1875 462.167 41.3125 460.625 44.9375C459.083 48.5208 458.312 52.2917 458.312 56.25C458.312 61.0417 459.125 65.3542 460.75 69.1875C462.417 72.9792 464.646 76.0417 467.438 78.375C470.271 80.7083 473.438 82.4792 476.938 83.6875C480.438 84.8958 484.167 85.5 488.125 85.5C495 85.5 501.396 84.1875 507.312 81.5625V85.875C501.188 88.6667 494.604 90.0625 487.562 90.0625C484.021 90.0625 480.604 89.6042 477.312 88.6875C474.021 87.7292 470.938 86.3125 468.062 84.4375C465.229 82.5625 462.75 80.2917 460.625 77.625C458.5 74.9583 456.833 71.7917 455.625 68.125C454.417 64.4583 453.812 60.5 453.812 56.25C453.812 50.125 455.312 44.4792 458.312 39.3125C461.354 34.1458 465.458 30.0625 470.625 27.0625C475.792 24.0208 481.438 22.5 487.562 22.5C493.271 22.5 498.562 23.8333 503.438 26.5C508.354 29.125 512.354 32.6875 515.438 37.1875L519.188 34.75C515.688 29.5833 511.146 25.5 505.562 22.5C500.021 19.5 494.021 18 487.562 18C480.646 18 474.25 19.7083 468.375 23.125C462.5 26.5417 457.854 31.1875 454.438 37.0625C451.021 42.9375 449.312 49.3333 449.312 56.25C449.312 62.1667 450.375 67.5833 452.5 72.5C454.625 77.4167 457.479 81.4583 461.062 84.625C464.688 87.7917 468.812 90.25 473.438 92C478.062 93.7083 482.917 94.5625 488 94.5625C494.708 94.5625 501.146 93.375 507.312 91V95.5C501.062 97.8333 494.479 99 487.562 99C483.104 99 478.75 98.375 474.5 97.125C470.292 95.875 466.396 94.0417 462.812 91.625C459.229 89.1667 456.083 86.25 453.375 82.875C450.708 79.4583 448.604 75.4792 447.062 70.9375C445.562 66.3542 444.812 61.4583 444.812 56.25C444.812 50.4583 445.938 44.9167 448.188 39.625C450.438 34.3333 453.458 29.7917 457.25 26C461.083 22.1667 465.646 19.125 470.938 16.875C476.229 14.625 481.771 13.5 487.562 13.5C494.771 13.5 501.479 15.1875 507.688 18.5625C513.938 21.8958 519.021 26.4375 522.938 32.1875L526.688 29.75C522.354 23.375 516.75 18.3333 509.875 14.625C503 10.875 495.562 9 487.562 9C479.021 9 471.125 11.125 463.875 15.375C456.625 19.5833 450.875 25.3125 446.625 32.5625C442.417 39.8125 440.312 47.7083 440.312 56.25C440.312 61.9167 441.146 67.2708 442.812 72.3125C444.521 77.3125 446.854 81.7083 449.812 85.5C452.812 89.25 456.292 92.5 460.25 95.25C464.25 97.9583 468.583 100.021 473.25 101.438C477.958 102.812 482.792 103.5 487.75 103.5C494.583 103.5 501.104 102.458 507.312 100.375V104.688C500.812 106.896 494.042 108 487 108C480.292 108 473.833 106.75 467.625 104.25C461.417 101.708 455.958 98.2292 451.25 93.8125C446.583 89.3958 442.833 83.9167 440 77.375C437.208 70.8333 435.812 63.7917 435.812 56.25C435.812 49.25 437.167 42.5625 439.875 36.1875C442.625 29.7708 446.312 24.25 450.938 19.625C455.562 15 461.062 11.3333 467.438 8.625C473.854 5.875 480.562 4.5 487.562 4.5C496.271 4.5 504.375 6.52083 511.875 10.5625C519.417 14.6042 525.562 20.1042 530.312 27.0625L534.062 24.625C528.896 17.0417 522.229 11.0417 514.062 6.625C505.896 2.20833 497.062 0 487.562 0C479.938 0 472.646 1.5 465.688 4.5C458.771 7.45833 452.792 11.4583 447.75 16.5C442.75 21.5 438.75 27.4792 435.75 34.4375C432.792 41.3542 431.312 48.625 431.312 56.25C431.312 64.5 432.833 72.1875 435.875 79.3125C438.958 86.3958 443.062 92.3542 448.188 97.1875C453.042 101.726 458.626 105.33 464.938 108H487H511.812Z" fill="#F2F2F2" fill-opacity="1"/>
<path d="M397.125 108V4.5H392.625V108H397.125Z" fill="#F2F2F2" fill-opacity="1"/>
<path d="M388.125 108V4.5H383.625V108H388.125Z" fill="#F2F2F2" fill-opacity="1"/>
<path d="M379.125 108V4.5H374.625V108H379.125Z" fill="#F2F2F2" fill-opacity="1"/>
<path d="M370.125 108V4.5H365.625V108H370.125Z" fill="#F2F2F2" fill-opacity="1"/>
<path d="M287.875 49.5H295C303.458 49.5 310.062 52.0833 314.812 57.25C319.604 62.4167 322 68.8333 322 76.5C322 84.2917 319.229 90.75 313.688 95.875C308.146 100.958 300.375 103.5 290.375 103.5C283.708 103.5 277.479 102.583 271.688 100.75C265.896 98.9167 261.083 96.3333 257.25 93L260.75 90.1875C264.167 92.9792 268.458 95.1458 273.625 96.6875C278.833 98.2292 284.417 99 290.375 99C299.167 99 305.875 96.8958 310.5 92.6875C315.167 88.4792 317.5 83.0833 317.5 76.5C317.5 70 315.542 64.625 311.625 60.375C307.75 56.125 302.188 54 294.938 54H287.875C281.792 54 277.229 52.3333 274.188 49C271.146 45.6667 269.625 41.3333 269.625 36C269.625 30.6667 271.5 26.3333 275.25 23C279.042 19.6667 284.708 18 292.25 18C297.542 18 302.458 18.625 307 19.875C311.542 21.0833 315.292 22.8333 318.25 25.125L314.688 27.875C309.479 24.2917 302 22.5 292.25 22.5C285.958 22.5 281.354 23.75 278.438 26.25C275.562 28.7083 274.125 31.9583 274.125 36C274.125 40.0833 275.188 43.3542 277.312 45.8125C279.479 48.2708 283 49.5 287.875 49.5Z" fill="#F2F2F2" fill-opacity="1"/>
<path d="M287.875 58.5H294.75C300.833 58.5 305.396 60.1875 308.438 63.5625C311.479 66.9375 313 71.25 313 76.5C313 81.8333 311.104 86.1667 307.312 89.5C303.562 92.8333 297.917 94.5 290.375 94.5C285.083 94.5 280.146 93.8958 275.562 92.6875C271.021 91.4375 267.271 89.6667 264.312 87.375L267.875 84.625C273.083 88.2083 280.583 90 290.375 90C296.667 90 301.25 88.7708 304.125 86.3125C307.042 83.8125 308.5 80.5417 308.5 76.5C308.5 72.4583 307.417 69.2083 305.25 66.75C303.083 64.25 299.562 63 294.688 63H287.875C279.333 63 272.646 60.4583 267.812 55.375C263.021 50.25 260.625 43.7917 260.625 36C260.625 28.2083 263.396 21.7708 268.938 16.6875C274.479 11.5625 282.25 9 292.25 9C298.917 9 305.125 9.91667 310.875 11.75C316.667 13.5833 321.479 16.1667 325.312 19.5L321.812 22.3125C318.396 19.5208 314.104 17.3542 308.938 15.8125C303.771 14.2708 298.208 13.5 292.25 13.5C283.458 13.5 276.729 15.6042 272.062 19.8125C267.438 24.0208 265.125 29.4167 265.125 36C265.125 42.5417 267.083 47.9375 271 52.1875C274.917 56.3958 280.542 58.5 287.875 58.5Z" fill="#F2F2F2" fill-opacity="1"/>
<path d="M287.875 67.5H294.75C297.958 67.5 300.271 68.3333 301.688 70C303.104 71.6667 303.812 73.8333 303.812 76.5C303.812 82.5 299.333 85.5 290.375 85.5C281.917 85.5 275.562 84.25 271.312 81.75L274.938 79C277.854 80.3333 283 81 290.375 81C293.958 81 296.354 80.6042 297.562 79.8125C298.812 79.0208 299.438 77.9167 299.438 76.5C299.438 75.125 299.083 74.0417 298.375 73.25C297.708 72.4167 296.458 72 294.625 72H287.875C282.125 72 276.917 71.0625 272.25 69.1875C267.625 67.3125 263.812 64.7292 260.812 61.4375C257.854 58.1458 255.583 54.3333 254 50C252.417 45.6667 251.625 41 251.625 36C251.625 32 252.188 28.2083 253.312 24.625C254.438 21.0417 256.125 17.75 258.375 14.75C260.667 11.75 263.396 9.16667 266.562 7C269.771 4.79167 273.562 3.08333 277.938 1.875C282.354 0.625 287.125 0 292.25 0C300.292 0 307.812 1.22917 314.812 3.6875C321.812 6.10417 327.646 9.5 332.312 13.875L328.688 16.5625C324.438 12.7292 319.125 9.77083 312.75 7.6875C306.375 5.5625 299.542 4.5 292.25 4.5C286.542 4.5 281.375 5.33333 276.75 7C272.167 8.625 268.375 10.875 265.375 13.75C262.417 16.625 260.125 19.9583 258.5 23.75C256.917 27.5417 256.125 31.625 256.125 36C256.125 41.875 257.312 47.1667 259.688 51.875C262.062 56.5833 265.688 60.375 270.562 63.25C275.438 66.0833 281.208 67.5 287.875 67.5Z" fill="#F2F2F2" fill-opacity="1"/>
<path d="M643.625 50.75L648.125 58.1875V4.5H643.625V50.75Z" fill="#F2F2F2" fill-opacity="1"/>
<path d="M652.625 65.375L657.125 72.9375V4.5H652.625V65.375Z" fill="#F2F2F2" fill-opacity="1"/>
<path d="M661.625 80.25L666.125 87.875V4.5H661.625V80.25Z" fill="#F2F2F2" fill-opacity="1"/>
</svg>
