<svg width="349" height="29" viewBox="0 0 349 29" fill="none" xmlns="http://www.w3.org/2000/svg">
<path d="M5.625 27.707H4.5V1.83203H5.625V27.707ZM3.375 27.707H2.25V1.83203H3.375V27.707ZM1.125 27.707H0V1.83203H1.125V27.707ZM7.875 22.082H19.8438V23.207H7.875V24.332H19.8438V25.457H7.875V26.582H19.8438V27.707H6.75V1.83203H19.8438V2.95703H7.875V4.08203H19.8438V5.20703H7.875V6.33203H19.8438V7.45703H7.875V11.957H14.0156V13.082H7.875V14.207H14.0156V15.332H7.875V16.457H14.0156V17.582H7.875V22.082Z" fill="#F2F2F2" fill-opacity="1"/>
<path d="M42.8438 13.7227L42.1719 14.7852L34.0312 1.83203H35.3594L42.8438 13.7227ZM48.3906 22.1758L49.0469 21.1133L53.2031 27.707H51.875L48.3906 22.1758ZM44.1719 11.6289L43.5 12.6758L36.6875 1.83203H38L44.1719 11.6289ZM49.7188 20.0664L50.375 19.0039L55.8594 27.707H54.5312L49.7188 20.0664ZM45.5 9.50391L44.8438 10.5508L39.3438 1.83203H40.6719L45.5 9.50391ZM51.0625 17.9414L51.7188 16.8789L58.5312 27.707H57.2031L51.0625 17.9414ZM46.8281 7.39453L46.1719 8.45703L42 1.83203H43.3281L46.8281 7.39453ZM52.375 15.832L53.0312 14.7695L61.1875 27.707H59.8594L52.375 15.832ZM59.0781 1.83203H60.4062L44.125 27.707H42.7969L59.0781 1.83203ZM56.4375 1.83203H57.75L41.4688 27.707H40.1406L56.4375 1.83203ZM53.7656 1.83203H55.0938L38.7969 27.707H37.4688L53.7656 1.83203ZM51.1094 1.83203H52.4375L36.1406 27.707H34.8125L51.1094 1.83203Z" fill="#F2F2F2" fill-opacity="1"/>
<path d="M84.75 15.457H91.2812C92.3542 15.457 93.2604 15.0977 94 14.3789C94.75 13.6497 95.125 12.6237 95.125 11.3008C95.125 10.3112 94.7344 9.42578 93.9531 8.64453C93.1719 7.85286 92.2812 7.45703 91.2812 7.45703H81.625V27.707H80.5V6.33203H91.2812C92.5938 6.33203 93.75 6.83724 94.75 7.84766C95.75 8.85807 96.25 10.0091 96.25 11.3008C96.25 12.8945 95.7656 14.1758 94.7969 15.1445C93.8281 16.1029 92.6562 16.582 91.2812 16.582H84.75V15.457ZM84.75 17.707H91.2812C92.3646 17.707 93.3646 17.4466 94.2812 16.9258C95.2083 16.3945 95.9531 15.6341 96.5156 14.6445C97.0885 13.6549 97.375 12.5404 97.375 11.3008C97.375 9.69661 96.7604 8.27995 95.5312 7.05078C94.3125 5.82161 92.8958 5.20703 91.2812 5.20703H79.375V27.707H78.25V4.08203H91.2812C92.5417 4.08203 93.7292 4.41536 94.8438 5.08203C95.9583 5.7487 96.8438 6.63932 97.5 7.75391C98.1667 8.86849 98.5 10.0508 98.5 11.3008C98.5 12.7174 98.1667 14.0091 97.5 15.1758C96.8333 16.332 95.9479 17.2331 94.8438 17.8789C93.75 18.5143 92.5625 18.832 91.2812 18.832H84.75V17.707ZM84.75 19.957H91.2812C92.3958 19.957 93.4635 19.7383 94.4844 19.3008C95.5052 18.8529 96.3906 18.2539 97.1406 17.5039C97.901 16.7435 98.5052 15.8268 98.9531 14.7539C99.401 13.6706 99.625 12.5195 99.625 11.3008C99.625 9.84245 99.2448 8.47266 98.4844 7.19141C97.724 5.89974 96.6979 4.8737 95.4062 4.11328C94.125 3.34245 92.75 2.95703 91.2812 2.95703H77.125V27.707H76V1.83203H91.2812C92.9479 1.83203 94.5104 2.26953 95.9688 3.14453C97.4271 4.00911 98.5885 5.17057 99.4531 6.62891C100.318 8.08724 100.75 9.64453 100.75 11.3008C100.75 12.7799 100.495 14.1445 99.9844 15.3945C99.474 16.6341 98.7865 17.6654 97.9219 18.4883C97.0573 19.3112 96.0521 19.9518 94.9062 20.4102C93.7604 20.8581 92.5521 21.082 91.2812 21.082H84.75V19.957ZM83.875 27.707H82.75V8.58203H91.2812C92.0208 8.58203 92.6562 8.85286 93.1875 9.39453C93.7292 9.9362 94 10.5716 94 11.3008C94 13.3216 93.0938 14.332 91.2812 14.332H84.75V13.207H91.2812C91.7812 13.207 92.1719 13.0664 92.4531 12.7852C92.7344 12.5039 92.875 12.0091 92.875 11.3008C92.875 10.8424 92.7188 10.4622 92.4062 10.1602C92.1042 9.85807 91.7292 9.70703 91.2812 9.70703H83.875V27.707Z" fill="#F2F2F2" fill-opacity="1"/>
<path d="M121.625 27.707H120.5V1.83203H121.625V27.707ZM119.375 27.707H118.25V1.83203H119.375V27.707ZM117.125 27.707H116V1.83203H117.125V27.707ZM123.875 22.082H135.844V23.207H123.875V24.332H135.844V25.457H123.875V26.582H135.844V27.707H122.75V1.83203H135.844V2.95703H123.875V4.08203H135.844V5.20703H123.875V6.33203H135.844V7.45703H123.875V11.957H130.016V13.082H123.875V14.207H130.016V15.332H123.875V16.457H130.016V17.582H123.875V22.082Z" fill="#F2F2F2" fill-opacity="1"/>
<path d="M159.5 14.832H166.281C167.312 14.832 168.182 14.4987 168.891 13.832C169.609 13.1654 169.969 12.2174 169.969 10.9883C169.969 10.082 169.594 9.26953 168.844 8.55078C168.094 7.82161 167.24 7.45703 166.281 7.45703H156.625V27.707H155.5V6.33203H166.281C167.552 6.33203 168.672 6.80599 169.641 7.75391C170.609 8.69141 171.094 9.76953 171.094 10.9883C171.094 12.4883 170.625 13.6914 169.688 14.5977C168.75 15.5039 167.615 15.957 166.281 15.957H159.5V14.832ZM159.5 17.082H166.281C167.906 17.082 169.302 16.5143 170.469 15.3789C171.635 14.2331 172.219 12.7695 172.219 10.9883C172.219 9.45703 171.62 8.11328 170.422 6.95703C169.234 5.79036 167.854 5.20703 166.281 5.20703H154.375V27.707H153.25V4.08203H166.281C167.521 4.08203 168.682 4.39974 169.766 5.03516C170.859 5.67057 171.729 6.52474 172.375 7.59766C173.021 8.66016 173.344 9.79036 173.344 10.9883C173.344 13.0404 172.646 14.7591 171.25 16.1445C169.865 17.5195 168.208 18.207 166.281 18.207H159.5V17.082ZM159.5 19.332H166.281C167.74 19.332 169.094 18.9727 170.344 18.2539C171.594 17.5352 172.594 16.5352 173.344 15.2539C174.094 13.9622 174.469 12.5404 174.469 10.9883C174.469 9.58203 174.094 8.26432 173.344 7.03516C172.604 5.79557 171.604 4.80599 170.344 4.06641C169.083 3.32682 167.729 2.95703 166.281 2.95703H152.125V27.707H151V1.83203H166.281C167.917 1.83203 169.453 2.25391 170.891 3.09766C172.328 3.93099 173.469 5.05599 174.312 6.47266C175.167 7.87891 175.594 9.38411 175.594 10.9883C175.594 12.8424 175.193 14.4727 174.391 15.8789C173.599 17.2852 172.521 18.3841 171.156 19.1758L174.062 27.707H172.875L170.094 19.707C169.677 19.8737 169.359 19.9883 169.141 20.0508L171.75 27.707H170.562L168.016 20.3164C167.922 20.3372 167.589 20.3737 167.016 20.4258L169.438 27.707H168.25L165.859 20.457H164.844L167.125 27.707H165.938L163.641 20.457H159.5V19.332ZM158.875 27.707H157.75V8.58203H166.281C166.979 8.58203 167.578 8.82161 168.078 9.30078C168.589 9.76953 168.844 10.332 168.844 10.9883C168.844 12.8008 167.99 13.707 166.281 13.707H159.5V12.582H166.281C166.729 12.582 167.078 12.4674 167.328 12.2383C167.589 11.9987 167.719 11.582 167.719 10.9883C167.719 10.6237 167.578 10.3216 167.297 10.082C167.026 9.83203 166.688 9.70703 166.281 9.70703H158.875V27.707Z" fill="#F2F2F2" fill-opacity="1"/>
<path d="M196.75 1.83203H197.875V27.707H196.75V1.83203ZM194.5 1.83203H195.625V27.707H194.5V1.83203ZM192.25 1.83203H193.375V27.707H192.25V1.83203ZM190 1.83203H191.125V27.707H190V1.83203Z" fill="#F2F2F2" fill-opacity="1"/>
<path d="M218.625 27.707H217.5V1.83203H218.625V27.707ZM216.375 27.707H215.25V1.83203H216.375V27.707ZM214.125 27.707H213V1.83203H214.125V27.707ZM220.875 22.082H232.844V23.207H220.875V24.332H232.844V25.457H220.875V26.582H232.844V27.707H219.75V1.83203H232.844V2.95703H220.875V4.08203H232.844V5.20703H220.875V6.33203H232.844V7.45703H220.875V11.957H227.016V13.082H220.875V14.207H227.016V15.332H220.875V16.457H227.016V17.582H220.875V22.082Z" fill="#F2F2F2" fill-opacity="1"/>
<path d="M266.375 15.2539L265.25 13.3945V1.83203H266.375V15.2539ZM268.625 18.9414L267.5 17.0508V1.83203H268.625V18.9414ZM270.875 22.6758L269.75 20.7695V1.83203H270.875V22.6758ZM254.75 14.2852L255.875 16.1445V27.707H254.75V14.2852ZM252.5 10.5977L253.625 12.4883V27.707H252.5V10.5977ZM250.25 6.86328L251.375 8.76953V27.707H250.25V6.86328ZM250.641 1.83203H251.953L267.859 27.707H266.547L250.641 1.83203ZM253.297 1.83203H254.625L270.516 27.707H269.172L253.297 1.83203ZM255.938 1.83203H257.25L272 25.8789V1.83203H273.125V27.707C273.125 27.707 272.682 27.707 271.797 27.707L255.938 1.83203ZM249.125 3.66016V27.707H248V1.83203C248 1.83203 248.448 1.83203 249.344 1.83203L265.203 27.707H263.906L249.125 3.66016Z" fill="#F2F2F2" fill-opacity="1"/>
<path d="M308.531 10.6758L307.609 11.2852C307.047 10.4518 306.312 9.79557 305.406 9.31641C304.51 8.82682 303.536 8.58203 302.484 8.58203C300.776 8.58203 299.318 9.1862 298.109 10.3945C296.901 11.6029 296.297 13.0612 296.297 14.7695C296.297 16.4779 296.901 17.9362 298.109 19.1445C299.318 20.3529 300.776 20.957 302.484 20.957C303.536 20.957 304.51 20.7122 305.406 20.2227C306.312 19.7331 307.047 19.0716 307.609 18.2383L308.516 18.8945C307.849 19.8737 306.984 20.6497 305.922 21.2227C304.859 21.7956 303.714 22.082 302.484 22.082C301.495 22.082 300.547 21.8893 299.641 21.5039C298.745 21.1185 297.969 20.5977 297.312 19.9414C296.656 19.2852 296.135 18.5091 295.75 17.6133C295.365 16.707 295.172 15.7591 295.172 14.7695C295.172 13.7799 295.365 12.8372 295.75 11.9414C296.135 11.0352 296.656 10.2539 297.312 9.59766C297.969 8.94141 298.745 8.42057 299.641 8.03516C300.547 7.64974 301.495 7.45703 302.484 7.45703C303.724 7.45703 304.875 7.7487 305.938 8.33203C307 8.90495 307.865 9.6862 308.531 10.6758ZM310.391 9.39453L309.453 10.0039C308.682 8.87891 307.682 7.98828 306.453 7.33203C305.234 6.66536 303.911 6.33203 302.484 6.33203C300.953 6.33203 299.542 6.71224 298.25 7.47266C296.958 8.22266 295.932 9.24349 295.172 10.5352C294.422 11.8268 294.047 13.2383 294.047 14.7695C294.047 16.3008 294.422 17.7122 295.172 19.0039C295.932 20.2956 296.958 21.3216 298.25 22.082C299.542 22.832 300.953 23.207 302.484 23.207C303.911 23.207 305.24 22.8737 306.469 22.207C307.698 21.5404 308.698 20.6393 309.469 19.5039L310.391 20.1445C309.516 21.4362 308.38 22.457 306.984 23.207C305.599 23.957 304.099 24.332 302.484 24.332C300.755 24.332 299.156 23.9049 297.688 23.0508C296.219 22.1966 295.057 21.0352 294.203 19.5664C293.349 18.0977 292.922 16.4987 292.922 14.7695C292.922 13.0404 293.349 11.4414 294.203 9.97266C295.057 8.50391 296.219 7.34245 297.688 6.48828C299.156 5.63411 300.755 5.20703 302.484 5.20703C304.099 5.20703 305.599 5.58203 306.984 6.33203C308.38 7.08203 309.516 8.10286 310.391 9.39453ZM312.266 8.14453L311.328 8.75391C310.349 7.31641 309.078 6.18099 307.516 5.34766C305.964 4.50391 304.286 4.08203 302.484 4.08203C301.036 4.08203 299.651 4.36328 298.328 4.92578C297.005 5.48828 295.865 6.2487 294.906 7.20703C293.958 8.15495 293.203 9.29036 292.641 10.6133C292.078 11.9362 291.797 13.3216 291.797 14.7695C291.797 16.2174 292.078 17.6029 292.641 18.9258C293.203 20.2487 293.958 21.3893 294.906 22.3477C295.865 23.2956 297.005 24.0508 298.328 24.6133C299.651 25.1758 301.036 25.457 302.484 25.457C304.297 25.457 305.979 25.0352 307.531 24.1914C309.083 23.3477 310.349 22.207 311.328 20.7695L312.234 21.4414C311.151 23.0247 309.75 24.2799 308.031 25.207C306.323 26.1237 304.474 26.582 302.484 26.582C300.349 26.582 298.375 26.056 296.562 25.0039C294.75 23.9414 293.312 22.5039 292.25 20.6914C291.198 18.8789 290.672 16.9049 290.672 14.7695C290.672 12.6341 291.198 10.6602 292.25 8.84766C293.312 7.03516 294.75 5.60286 296.562 4.55078C298.375 3.48828 300.349 2.95703 302.484 2.95703C304.484 2.95703 306.344 3.42578 308.062 4.36328C309.781 5.29036 311.182 6.55078 312.266 8.14453ZM314.109 6.86328L313.172 7.47266C311.984 5.73307 310.448 4.35807 308.562 3.34766C306.688 2.33724 304.661 1.83203 302.484 1.83203C300.734 1.83203 299.057 2.17578 297.453 2.86328C295.859 3.54036 294.484 4.45703 293.328 5.61328C292.172 6.76953 291.25 8.14974 290.562 9.75391C289.885 11.3477 289.547 13.0195 289.547 14.7695C289.547 16.5195 289.885 18.1966 290.562 19.8008C291.25 21.3945 292.172 22.7695 293.328 23.9258C294.484 25.082 295.859 26.0039 297.453 26.6914C299.057 27.3685 300.734 27.707 302.484 27.707C304.661 27.707 306.693 27.1966 308.578 26.1758C310.464 25.1549 312 23.7747 313.188 22.0352L314.094 22.7227C312.802 24.5977 311.135 26.0872 309.094 27.1914C307.052 28.2852 304.849 28.832 302.484 28.832C300.578 28.832 298.755 28.457 297.016 27.707C295.286 26.9674 293.792 25.9727 292.531 24.7227C291.281 23.4622 290.281 21.9674 289.531 20.2383C288.792 18.4987 288.422 16.6758 288.422 14.7695C288.422 12.8633 288.792 11.0456 289.531 9.31641C290.281 7.57682 291.281 6.08203 292.531 4.83203C293.792 3.57161 295.286 2.57161 297.016 1.83203C298.755 1.08203 300.578 0.707031 302.484 0.707031C304.859 0.707031 307.068 1.25911 309.109 2.36328C311.151 3.46745 312.818 4.96745 314.109 6.86328Z" fill="#F2F2F2" fill-opacity="1"/>
<path d="M334.625 27.707H333.5V1.83203H334.625V27.707ZM332.375 27.707H331.25V1.83203H332.375V27.707ZM330.125 27.707H329V1.83203H330.125V27.707ZM336.875 22.082H348.844V23.207H336.875V24.332H348.844V25.457H336.875V26.582H348.844V27.707H335.75V1.83203H348.844V2.95703H336.875V4.08203H348.844V5.20703H336.875V6.33203H348.844V7.45703H336.875V11.957H343.016V13.082H336.875V14.207H343.016V15.332H336.875V16.457H343.016V17.582H336.875V22.082Z" fill="#F2F2F2" fill-opacity="1"/>
</svg>
