<svg width="1104" height="113" viewBox="0 0 1104 113" fill="none" xmlns="http://www.w3.org/2000/svg">
<path d="M22.5 108.5H18V5H22.5V108.5ZM13.5 108.5H9V5H13.5V108.5ZM4.5 108.5H0V5H4.5V108.5ZM31.5 86H79.375V90.5H31.5V95H79.375V99.5H31.5V104H79.375V108.5H27V5H79.375V9.5H31.5V14H79.375V18.5H31.5V23H79.375V27.5H31.5V45.5H56.0625V50H31.5V54.5H56.0625V59H31.5V63.5H56.0625V68H31.5V86Z" fill="#F2F2F2" fill-opacity="0.025"/>
<path d="M146.375 52.5625L143.688 56.8125L111.125 5H116.438L146.375 52.5625ZM168.562 86.375L171.188 82.125L187.812 108.5H182.5L168.562 86.375ZM151.688 44.1875L149 48.375L121.75 5H127L151.688 44.1875ZM173.875 77.9375L176.5 73.6875L198.438 108.5H193.125L173.875 77.9375ZM157 35.6875L154.375 39.875L132.375 5H137.688L157 35.6875ZM179.25 69.4375L181.875 65.1875L209.125 108.5H203.812L179.25 69.4375ZM162.312 27.25L159.688 31.5L143 5H148.312L162.312 27.25ZM184.5 61L187.125 56.75L219.75 108.5H214.438L184.5 61ZM211.312 5H216.625L151.5 108.5H146.188L211.312 5ZM200.75 5H206L140.875 108.5H135.562L200.75 5ZM190.062 5H195.375L130.188 108.5H124.875L190.062 5ZM179.438 5H184.75L119.562 108.5H114.25L179.438 5Z" fill="#F2F2F2" fill-opacity="0.025"/>
<path d="M287 59.5H313.125C317.417 59.5 321.042 58.0625 324 55.1875C327 52.2708 328.5 48.1667 328.5 42.875C328.5 38.9167 326.938 35.375 323.812 32.25C320.688 29.0833 317.125 27.5 313.125 27.5H274.5V108.5H270V23H313.125C318.375 23 323 25.0208 327 29.0625C331 33.1042 333 37.7083 333 42.875C333 49.25 331.062 54.375 327.188 58.25C323.312 62.0833 318.625 64 313.125 64H287V59.5ZM287 68.5H313.125C317.458 68.5 321.458 67.4583 325.125 65.375C328.833 63.25 331.812 60.2083 334.062 56.25C336.354 52.2917 337.5 47.8333 337.5 42.875C337.5 36.4583 335.042 30.7917 330.125 25.875C325.25 20.9583 319.583 18.5 313.125 18.5H265.5V108.5H261V14H313.125C318.167 14 322.917 15.3333 327.375 18C331.833 20.6667 335.375 24.2292 338 28.6875C340.667 33.1458 342 37.875 342 42.875C342 48.5417 340.667 53.7083 338 58.375C335.333 63 331.792 66.6042 327.375 69.1875C323 71.7292 318.25 73 313.125 73H287V68.5ZM287 77.5H313.125C317.583 77.5 321.854 76.625 325.938 74.875C330.021 73.0833 333.562 70.6875 336.562 67.6875C339.604 64.6458 342.021 60.9792 343.812 56.6875C345.604 52.3542 346.5 47.75 346.5 42.875C346.5 37.0417 344.979 31.5625 341.938 26.4375C338.896 21.2708 334.792 17.1667 329.625 14.125C324.5 11.0417 319 9.5 313.125 9.5H256.5V108.5H252V5H313.125C319.792 5 326.042 6.75 331.875 10.25C337.708 13.7083 342.354 18.3542 345.812 24.1875C349.271 30.0208 351 36.25 351 42.875C351 48.7917 349.979 54.25 347.938 59.25C345.896 64.2083 343.146 68.3333 339.688 71.625C336.229 74.9167 332.208 77.4792 327.625 79.3125C323.042 81.1042 318.208 82 313.125 82H287V77.5ZM283.5 108.5H279V32H313.125C316.083 32 318.625 33.0833 320.75 35.25C322.917 37.4167 324 39.9583 324 42.875C324 50.9583 320.375 55 313.125 55H287V50.5H313.125C315.125 50.5 316.688 49.9375 317.812 48.8125C318.938 47.6875 319.5 45.7083 319.5 42.875C319.5 41.0417 318.875 39.5208 317.625 38.3125C316.417 37.1042 314.917 36.5 313.125 36.5H283.5V108.5Z" fill="#F2F2F2" fill-opacity="0.025"/>
<path d="M407.5 108.5H403V5H407.5V108.5ZM398.5 108.5H394V5H398.5V108.5ZM389.5 108.5H385V5H389.5V108.5ZM416.5 86H464.375V90.5H416.5V95H464.375V99.5H416.5V104H464.375V108.5H412V5H464.375V9.5H416.5V14H464.375V18.5H416.5V23H464.375V27.5H416.5V45.5H441.062V50H416.5V54.5H441.062V59H416.5V63.5H441.062V68H416.5V86Z" fill="#F2F2F2" fill-opacity="0.025"/>
<path d="M534 57H561.125C565.25 57 568.729 55.6667 571.562 53C574.438 50.3333 575.875 46.5417 575.875 41.625C575.875 38 574.375 34.75 571.375 31.875C568.375 28.9583 564.958 27.5 561.125 27.5H522.5V108.5H518V23H561.125C566.208 23 570.688 24.8958 574.562 28.6875C578.438 32.4375 580.375 36.75 580.375 41.625C580.375 47.625 578.5 52.4375 574.75 56.0625C571 59.6875 566.458 61.5 561.125 61.5H534V57ZM534 66H561.125C567.625 66 573.208 63.7292 577.875 59.1875C582.542 54.6042 584.875 48.75 584.875 41.625C584.875 35.5 582.479 30.125 577.688 25.5C572.938 20.8333 567.417 18.5 561.125 18.5H513.5V108.5H509V14H561.125C566.083 14 570.729 15.2708 575.062 17.8125C579.438 20.3542 582.917 23.7708 585.5 28.0625C588.083 32.3125 589.375 36.8333 589.375 41.625C589.375 49.8333 586.583 56.7083 581 62.25C575.458 67.75 568.833 70.5 561.125 70.5H534V66ZM534 75H561.125C566.958 75 572.375 73.5625 577.375 70.6875C582.375 67.8125 586.375 63.8125 589.375 58.6875C592.375 53.5208 593.875 47.8333 593.875 41.625C593.875 36 592.375 30.7292 589.375 25.8125C586.417 20.8542 582.417 16.8958 577.375 13.9375C572.333 10.9792 566.917 9.5 561.125 9.5H504.5V108.5H500V5H561.125C567.667 5 573.812 6.6875 579.562 10.0625C585.312 13.3958 589.875 17.8958 593.25 23.5625C596.667 29.1875 598.375 35.2083 598.375 41.625C598.375 49.0417 596.771 55.5625 593.562 61.1875C590.396 66.8125 586.083 71.2083 580.625 74.375L592.25 108.5H587.5L576.375 76.5C574.708 77.1667 573.438 77.625 572.562 77.875L583 108.5H578.25L568.062 78.9375C567.688 79.0208 566.354 79.1667 564.062 79.375L573.75 108.5H569L559.438 79.5H555.375L564.5 108.5H559.75L550.562 79.5H534V75ZM531.5 108.5H527V32H561.125C563.917 32 566.312 32.9583 568.312 34.875C570.354 36.75 571.375 39 571.375 41.625C571.375 48.875 567.958 52.5 561.125 52.5H534V48H561.125C562.917 48 564.312 47.5417 565.312 46.625C566.354 45.6667 566.875 44 566.875 41.625C566.875 40.1667 566.312 38.9583 565.188 38C564.104 37 562.75 36.5 561.125 36.5H531.5V108.5Z" fill="#F2F2F2" fill-opacity="0.025"/>
<path d="M659 5H663.5V108.5H659V5ZM650 5H654.5V108.5H650V5ZM641 5H645.5V108.5H641V5ZM632 5H636.5V108.5H632V5Z" fill="#F2F2F2" fill-opacity="0.025"/>
<path d="M722.5 108.5H718V5H722.5V108.5ZM713.5 108.5H709V5H713.5V108.5ZM704.5 108.5H700V5H704.5V108.5ZM731.5 86H779.375V90.5H731.5V95H779.375V99.5H731.5V104H779.375V108.5H727V5H779.375V9.5H731.5V14H779.375V18.5H731.5V23H779.375V27.5H731.5V45.5H756.062V50H731.5V54.5H756.062V59H731.5V63.5H756.062V68H731.5V86Z" fill="#F2F2F2" fill-opacity="0.025"/>
<path d="M888.5 58.6875L884 51.25V5H888.5V58.6875ZM897.5 73.4375L893 65.875V5H897.5V73.4375ZM906.5 88.375L902 80.75V5H906.5V88.375ZM842 54.8125L846.5 62.25V108.5H842V54.8125ZM833 40.0625L837.5 47.625V108.5H833V40.0625ZM824 25.125L828.5 32.75V108.5H824V25.125ZM825.562 5H830.812L894.438 108.5H889.188L825.562 5ZM836.188 5H841.5L905.062 108.5H899.688L836.188 5ZM846.75 5H852L911 101.188V5H915.5V108.5C915.5 108.5 913.729 108.5 910.188 108.5L846.75 5ZM819.5 12.3125V108.5H815V5C815 5 816.792 5 820.375 5L883.812 108.5H878.625L819.5 12.3125Z" fill="#F2F2F2" fill-opacity="0.025"/>
<path d="M1030.12 40.375L1026.44 42.8125C1024.19 39.4792 1021.25 36.8542 1017.62 34.9375C1014.04 32.9792 1010.15 32 1005.94 32C999.104 32 993.271 34.4167 988.438 39.25C983.604 44.0833 981.188 49.9167 981.188 56.75C981.188 63.5833 983.604 69.4167 988.438 74.25C993.271 79.0833 999.104 81.5 1005.94 81.5C1010.15 81.5 1014.04 80.5208 1017.62 78.5625C1021.25 76.6042 1024.19 73.9583 1026.44 70.625L1030.06 73.25C1027.4 77.1667 1023.94 80.2708 1019.69 82.5625C1015.44 84.8542 1010.85 86 1005.94 86C1001.98 86 998.188 85.2292 994.562 83.6875C990.979 82.1458 987.875 80.0625 985.25 77.4375C982.625 74.8125 980.542 71.7083 979 68.125C977.458 64.5 976.688 60.7083 976.688 56.75C976.688 52.7917 977.458 49.0208 979 45.4375C980.542 41.8125 982.625 38.6875 985.25 36.0625C987.875 33.4375 990.979 31.3542 994.562 29.8125C998.188 28.2708 1001.98 27.5 1005.94 27.5C1010.9 27.5 1015.5 28.6667 1019.75 31C1024 33.2917 1027.46 36.4167 1030.12 40.375ZM1037.56 35.25L1033.81 37.6875C1030.73 33.1875 1026.73 29.625 1021.81 27C1016.94 24.3333 1011.65 23 1005.94 23C999.812 23 994.167 24.5208 989 27.5625C983.833 30.5625 979.729 34.6458 976.688 39.8125C973.688 44.9792 972.188 50.625 972.188 56.75C972.188 62.875 973.688 68.5208 976.688 73.6875C979.729 78.8542 983.833 82.9583 989 86C994.167 89 999.812 90.5 1005.94 90.5C1011.65 90.5 1016.96 89.1667 1021.88 86.5C1026.79 83.8333 1030.79 80.2292 1033.88 75.6875L1037.56 78.25C1034.06 83.4167 1029.52 87.5 1023.94 90.5C1018.4 93.5 1012.4 95 1005.94 95C999.021 95 992.625 93.2917 986.75 89.875C980.875 86.4583 976.229 81.8125 972.812 75.9375C969.396 70.0625 967.688 63.6667 967.688 56.75C967.688 49.8333 969.396 43.4375 972.812 37.5625C976.229 31.6875 980.875 27.0417 986.75 23.625C992.625 20.2083 999.021 18.5 1005.94 18.5C1012.4 18.5 1018.4 20 1023.94 23C1029.52 26 1034.06 30.0833 1037.56 35.25ZM1045.06 30.25L1041.31 32.6875C1037.4 26.9375 1032.31 22.3958 1026.06 19.0625C1019.85 15.6875 1013.15 14 1005.94 14C1000.15 14 994.604 15.125 989.312 17.375C984.021 19.625 979.458 22.6667 975.625 26.5C971.833 30.2917 968.812 34.8333 966.562 40.125C964.312 45.4167 963.188 50.9583 963.188 56.75C963.188 62.5417 964.312 68.0833 966.562 73.375C968.812 78.6667 971.833 83.2292 975.625 87.0625C979.458 90.8542 984.021 93.875 989.312 96.125C994.604 98.375 1000.15 99.5 1005.94 99.5C1013.19 99.5 1019.92 97.8125 1026.12 94.4375C1032.33 91.0625 1037.4 86.5 1041.31 80.75L1044.94 83.4375C1040.6 89.7708 1035 94.7917 1028.12 98.5C1021.29 102.167 1013.9 104 1005.94 104C997.396 104 989.5 101.896 982.25 97.6875C975 93.4375 969.25 87.6875 965 80.4375C960.792 73.1875 958.688 65.2917 958.688 56.75C958.688 48.2083 960.792 40.3125 965 33.0625C969.25 25.8125 975 20.0833 982.25 15.875C989.5 11.625 997.396 9.5 1005.94 9.5C1013.94 9.5 1021.38 11.375 1028.25 15.125C1035.12 18.8333 1040.73 23.875 1045.06 30.25ZM1052.44 25.125L1048.69 27.5625C1043.94 20.6042 1037.79 15.1042 1030.25 11.0625C1022.75 7.02083 1014.65 5 1005.94 5C998.938 5 992.229 6.375 985.812 9.125C979.438 11.8333 973.938 15.5 969.312 20.125C964.688 24.75 961 30.2708 958.25 36.6875C955.542 43.0625 954.188 49.75 954.188 56.75C954.188 63.75 955.542 70.4583 958.25 76.875C961 83.25 964.688 88.75 969.312 93.375C973.938 98 979.438 101.688 985.812 104.438C992.229 107.146 998.938 108.5 1005.94 108.5C1014.65 108.5 1022.77 106.458 1030.31 102.375C1037.85 98.2917 1044 92.7708 1048.75 85.8125L1052.38 88.5625C1047.21 96.0625 1040.54 102.021 1032.38 106.438C1024.21 110.812 1015.4 113 1005.94 113C998.312 113 991.021 111.5 984.062 108.5C977.146 105.542 971.167 101.562 966.125 96.5625C961.125 91.5208 957.125 85.5417 954.125 78.625C951.167 71.6667 949.688 64.375 949.688 56.75C949.688 49.125 951.167 41.8542 954.125 34.9375C957.125 27.9792 961.125 22 966.125 17C971.167 11.9583 977.146 7.95833 984.062 5C991.021 2 998.312 0.5 1005.94 0.5C1015.44 0.5 1024.27 2.70833 1032.44 7.125C1040.6 11.5417 1047.27 17.5417 1052.44 25.125Z" fill="#F2F2F2" fill-opacity="0.025"/>
<path d="M1108.5 108.5H1104V5H1108.5V108.5ZM1099.5 108.5H1095V5H1099.5V108.5ZM1090.5 108.5H1086V5H1090.5V108.5ZM1117.5 86H1165.38V90.5H1117.5V95H1165.38V99.5H1117.5V104H1165.38V108.5H1113V5H1165.38V9.5H1117.5V14H1165.38V18.5H1117.5V23H1165.38V27.5H1117.5V45.5H1142.06V50H1117.5V54.5H1142.06V59H1117.5V63.5H1142.06V68H1117.5V86Z" fill="#F2F2F2" fill-opacity="0.025"/>
</svg>
