<svg width="306" height="29" viewBox="0 0 306 29" fill="none" xmlns="http://www.w3.org/2000/svg">
<path d="M7.28125 1.28906H8.40625V27.1641H7.28125V1.28906ZM5.03125 1.28906H6.15625V27.1641H5.03125V1.28906ZM2.78125 1.28906H3.90625V27.1641H2.78125V1.28906ZM0.53125 1.28906H1.65625V27.1641H0.53125V1.28906Z" fill="#F2F2F2" fill-opacity="1"/>
<path d="M41.9062 14.7109L40.7812 12.8516V1.28906H41.9062V14.7109ZM44.1562 18.3984L43.0312 16.5078V1.28906H44.1562V18.3984ZM46.4062 22.1328L45.2812 20.2266V1.28906H46.4062V22.1328ZM30.2812 13.7422L31.4062 15.6016V27.1641H30.2812V13.7422ZM28.0312 10.0547L29.1562 11.9453V27.1641H28.0312V10.0547ZM25.7812 6.32031L26.9062 8.22656V27.1641H25.7812V6.32031ZM26.1719 1.28906H27.4844L43.3906 27.1641H42.0781L26.1719 1.28906ZM28.8281 1.28906H30.1562L46.0469 27.1641H44.7031L28.8281 1.28906ZM31.4688 1.28906H32.7812L47.5312 25.3359V1.28906H48.6562V27.1641C48.6562 27.1641 48.2135 27.1641 47.3281 27.1641L31.4688 1.28906ZM24.6562 3.11719V27.1641H23.5312V1.28906C23.5312 1.28906 23.9792 1.28906 24.875 1.28906L40.7344 27.1641H39.4375L24.6562 3.11719Z" fill="#F2F2F2" fill-opacity="1"/>
<path d="M64.0312 2.41406V1.28906H80.9062V2.41406H64.0312ZM64.0312 4.66406V3.53906H80.9062V4.66406H64.0312ZM64.0312 6.91406V5.78906H80.9062V6.91406H76.4062V27.1641H75.2812V6.91406H74.1562V27.1641H73.0312V6.91406H71.9062V27.1641H70.7812V6.91406H69.6562V27.1641H68.5312V6.91406H64.0312Z" fill="#F2F2F2" fill-opacity="1"/>
<path d="M101.156 27.1641H100.031V1.28906H101.156V27.1641ZM98.9062 27.1641H97.7812V1.28906H98.9062V27.1641ZM96.6562 27.1641H95.5312V1.28906H96.6562V27.1641ZM103.406 21.5391H115.375V22.6641H103.406V23.7891H115.375V24.9141H103.406V26.0391H115.375V27.1641H102.281V1.28906H115.375V2.41406H103.406V3.53906H115.375V4.66406H103.406V5.78906H115.375V6.91406H103.406V11.4141H109.547V12.5391H103.406V13.6641H109.547V14.7891H103.406V15.9141H109.547V17.0391H103.406V21.5391Z" fill="#F2F2F2" fill-opacity="1"/>
<path d="M139.031 14.2891H145.812C146.844 14.2891 147.714 13.9557 148.422 13.2891C149.141 12.6224 149.5 11.6745 149.5 10.4453C149.5 9.53906 149.125 8.72656 148.375 8.00781C147.625 7.27865 146.771 6.91406 145.812 6.91406H136.156V27.1641H135.031V5.78906H145.812C147.083 5.78906 148.203 6.26302 149.172 7.21094C150.141 8.14844 150.625 9.22656 150.625 10.4453C150.625 11.9453 150.156 13.1484 149.219 14.0547C148.281 14.9609 147.146 15.4141 145.812 15.4141H139.031V14.2891ZM139.031 16.5391H145.812C147.438 16.5391 148.833 15.9714 150 14.8359C151.167 13.6901 151.75 12.2266 151.75 10.4453C151.75 8.91406 151.151 7.57031 149.953 6.41406C148.766 5.2474 147.385 4.66406 145.812 4.66406H133.906V27.1641H132.781V3.53906H145.812C147.052 3.53906 148.214 3.85677 149.297 4.49219C150.391 5.1276 151.26 5.98177 151.906 7.05469C152.552 8.11719 152.875 9.2474 152.875 10.4453C152.875 12.4974 152.177 14.2161 150.781 15.6016C149.396 16.9766 147.74 17.6641 145.812 17.6641H139.031V16.5391ZM139.031 18.7891H145.812C147.271 18.7891 148.625 18.4297 149.875 17.7109C151.125 16.9922 152.125 15.9922 152.875 14.7109C153.625 13.4193 154 11.9974 154 10.4453C154 9.03906 153.625 7.72135 152.875 6.49219C152.135 5.2526 151.135 4.26302 149.875 3.52344C148.615 2.78385 147.26 2.41406 145.812 2.41406H131.656V27.1641H130.531V1.28906H145.812C147.448 1.28906 148.984 1.71094 150.422 2.55469C151.859 3.38802 153 4.51302 153.844 5.92969C154.698 7.33594 155.125 8.84115 155.125 10.4453C155.125 12.2995 154.724 13.9297 153.922 15.3359C153.13 16.7422 152.052 17.8411 150.688 18.6328L153.594 27.1641H152.406L149.625 19.1641C149.208 19.3307 148.891 19.4453 148.672 19.5078L151.281 27.1641H150.094L147.547 19.7734C147.453 19.7943 147.12 19.8307 146.547 19.8828L148.969 27.1641H147.781L145.391 19.9141H144.375L146.656 27.1641H145.469L143.172 19.9141H139.031V18.7891ZM138.406 27.1641H137.281V8.03906H145.812C146.51 8.03906 147.109 8.27865 147.609 8.75781C148.12 9.22656 148.375 9.78906 148.375 10.4453C148.375 12.2578 147.521 13.1641 145.812 13.1641H139.031V12.0391H145.812C146.26 12.0391 146.609 11.9245 146.859 11.6953C147.12 11.4557 147.25 11.0391 147.25 10.4453C147.25 10.0807 147.109 9.77865 146.828 9.53906C146.557 9.28906 146.219 9.16406 145.812 9.16406H138.406V27.1641Z" fill="#F2F2F2" fill-opacity="1"/>
<path d="M177.406 27.1641H176.281V1.28906H188.734V2.41406H177.406V3.53906H188.734V4.66406H177.406V5.78906H188.734V6.91406H177.406V12.5391H188.203V13.6641H177.406V14.7891H188.203V15.9141H177.406V17.0391H188.203V18.1641H177.406V27.1641ZM175.156 27.1641H174.031V1.28906H175.156V27.1641ZM172.906 27.1641H171.781V1.28906H172.906V27.1641ZM170.656 27.1641H169.531V1.28906H170.656V27.1641Z" fill="#F2F2F2" fill-opacity="1"/>
<path d="M214.703 19.5703L215.156 18.4453H219L219.453 19.5703H214.703ZM213.828 21.8203L214.266 20.6953H219.875L220.359 21.8203H213.828ZM212.953 24.0703L213.391 22.9453H220.766L221.234 24.0703H212.953ZM203.812 27.1641H202.594L212.828 1.28906H214.047L224.266 27.1641H223.062L213.438 2.80469L203.812 27.1641ZM213.578 5.47656L214.219 6.91406L206.219 27.1641H205.016L213.578 5.47656ZM214.828 8.44531L215.422 9.99219L208.656 27.1641H207.438L214.828 8.44531ZM216.016 11.5391L216.609 13.1172L211.062 27.1641H209.859L216.016 11.5391ZM231.531 27.1641H230.312L220.094 1.28906H221.297L231.531 27.1641ZM218.875 1.28906L229.109 27.1641H227.906L217.672 1.28906H218.875ZM216.453 1.28906L226.688 27.1641H225.469L215.25 1.28906H216.453Z" fill="#F2F2F2" fill-opacity="1"/>
<path d="M265.062 10.1328L264.141 10.7422C263.578 9.90885 262.844 9.2526 261.938 8.77344C261.042 8.28385 260.068 8.03906 259.016 8.03906C257.307 8.03906 255.849 8.64323 254.641 9.85156C253.432 11.0599 252.828 12.5182 252.828 14.2266C252.828 15.9349 253.432 17.3932 254.641 18.6016C255.849 19.8099 257.307 20.4141 259.016 20.4141C260.068 20.4141 261.042 20.1693 261.938 19.6797C262.844 19.1901 263.578 18.5286 264.141 17.6953L265.047 18.3516C264.38 19.3307 263.516 20.1068 262.453 20.6797C261.391 21.2526 260.245 21.5391 259.016 21.5391C258.026 21.5391 257.078 21.3464 256.172 20.9609C255.276 20.5755 254.5 20.0547 253.844 19.3984C253.188 18.7422 252.667 17.9661 252.281 17.0703C251.896 16.1641 251.703 15.2161 251.703 14.2266C251.703 13.237 251.896 12.2943 252.281 11.3984C252.667 10.4922 253.188 9.71094 253.844 9.05469C254.5 8.39844 255.276 7.8776 256.172 7.49219C257.078 7.10677 258.026 6.91406 259.016 6.91406C260.255 6.91406 261.406 7.20573 262.469 7.78906C263.531 8.36198 264.396 9.14323 265.062 10.1328ZM266.922 8.85156L265.984 9.46094C265.214 8.33594 264.214 7.44531 262.984 6.78906C261.766 6.1224 260.443 5.78906 259.016 5.78906C257.484 5.78906 256.073 6.16927 254.781 6.92969C253.49 7.67969 252.464 8.70052 251.703 9.99219C250.953 11.2839 250.578 12.6953 250.578 14.2266C250.578 15.7578 250.953 17.1693 251.703 18.4609C252.464 19.7526 253.49 20.7786 254.781 21.5391C256.073 22.2891 257.484 22.6641 259.016 22.6641C260.443 22.6641 261.771 22.3307 263 21.6641C264.229 20.9974 265.229 20.0964 266 18.9609L266.922 19.6016C266.047 20.8932 264.911 21.9141 263.516 22.6641C262.13 23.4141 260.63 23.7891 259.016 23.7891C257.286 23.7891 255.688 23.362 254.219 22.5078C252.75 21.6536 251.589 20.4922 250.734 19.0234C249.88 17.5547 249.453 15.9557 249.453 14.2266C249.453 12.4974 249.88 10.8984 250.734 9.42969C251.589 7.96094 252.75 6.79948 254.219 5.94531C255.688 5.09115 257.286 4.66406 259.016 4.66406C260.63 4.66406 262.13 5.03906 263.516 5.78906C264.911 6.53906 266.047 7.5599 266.922 8.85156ZM268.797 7.60156L267.859 8.21094C266.88 6.77344 265.609 5.63802 264.047 4.80469C262.495 3.96094 260.818 3.53906 259.016 3.53906C257.568 3.53906 256.182 3.82031 254.859 4.38281C253.536 4.94531 252.396 5.70573 251.438 6.66406C250.49 7.61198 249.734 8.7474 249.172 10.0703C248.609 11.3932 248.328 12.7786 248.328 14.2266C248.328 15.6745 248.609 17.0599 249.172 18.3828C249.734 19.7057 250.49 20.8464 251.438 21.8047C252.396 22.7526 253.536 23.5078 254.859 24.0703C256.182 24.6328 257.568 24.9141 259.016 24.9141C260.828 24.9141 262.51 24.4922 264.062 23.6484C265.615 22.8047 266.88 21.6641 267.859 20.2266L268.766 20.8984C267.682 22.4818 266.281 23.737 264.562 24.6641C262.854 25.5807 261.005 26.0391 259.016 26.0391C256.88 26.0391 254.906 25.513 253.094 24.4609C251.281 23.3984 249.844 21.9609 248.781 20.1484C247.729 18.3359 247.203 16.362 247.203 14.2266C247.203 12.0911 247.729 10.1172 248.781 8.30469C249.844 6.49219 251.281 5.0599 253.094 4.00781C254.906 2.94531 256.88 2.41406 259.016 2.41406C261.016 2.41406 262.875 2.88281 264.594 3.82031C266.312 4.7474 267.714 6.00781 268.797 7.60156ZM270.641 6.32031L269.703 6.92969C268.516 5.1901 266.979 3.8151 265.094 2.80469C263.219 1.79427 261.193 1.28906 259.016 1.28906C257.266 1.28906 255.589 1.63281 253.984 2.32031C252.391 2.9974 251.016 3.91406 249.859 5.07031C248.703 6.22656 247.781 7.60677 247.094 9.21094C246.417 10.8047 246.078 12.4766 246.078 14.2266C246.078 15.9766 246.417 17.6536 247.094 19.2578C247.781 20.8516 248.703 22.2266 249.859 23.3828C251.016 24.5391 252.391 25.4609 253.984 26.1484C255.589 26.8255 257.266 27.1641 259.016 27.1641C261.193 27.1641 263.224 26.6536 265.109 25.6328C266.995 24.612 268.531 23.2318 269.719 21.4922L270.625 22.1797C269.333 24.0547 267.667 25.5443 265.625 26.6484C263.583 27.7422 261.38 28.2891 259.016 28.2891C257.109 28.2891 255.286 27.9141 253.547 27.1641C251.818 26.4245 250.323 25.4297 249.062 24.1797C247.812 22.9193 246.812 21.4245 246.062 19.6953C245.323 17.9557 244.953 16.1328 244.953 14.2266C244.953 12.3203 245.323 10.5026 246.062 8.77344C246.812 7.03385 247.812 5.53906 249.062 4.28906C250.323 3.02865 251.818 2.02865 253.547 1.28906C255.286 0.539062 257.109 0.164062 259.016 0.164062C261.391 0.164062 263.599 0.716146 265.641 1.82031C267.682 2.92448 269.349 4.42448 270.641 6.32031Z" fill="#F2F2F2" fill-opacity="1"/>
<path d="M291.156 27.1641H290.031V1.28906H291.156V27.1641ZM288.906 27.1641H287.781V1.28906H288.906V27.1641ZM286.656 27.1641H285.531V1.28906H286.656V27.1641ZM293.406 21.5391H305.375V22.6641H293.406V23.7891H305.375V24.9141H293.406V26.0391H305.375V27.1641H292.281V1.28906H305.375V2.41406H293.406V3.53906H305.375V4.66406H293.406V5.78906H305.375V6.91406H293.406V11.4141H299.547V12.5391H293.406V13.6641H299.547V14.7891H293.406V15.9141H299.547V17.0391H293.406V21.5391Z" fill="#F2F2F2" fill-opacity="1"/>
</svg>
