<svg width="1022" height="113" viewBox="0 0 1022 113" fill="none" xmlns="http://www.w3.org/2000/svg">
<path d="M27.625 4.5H32.125V108H27.625V4.5ZM18.625 4.5H23.125V108H18.625V4.5ZM9.625 4.5H14.125V108H9.625V4.5ZM0.625 4.5H5.125V108H0.625V4.5Z" fill="#F2F2F2" fill-opacity="0.025"/>
<path d="M142.125 58.1875L137.625 50.75V4.5H142.125V58.1875ZM151.125 72.9375L146.625 65.375V4.5H151.125V72.9375ZM160.125 87.875L155.625 80.25V4.5H160.125V87.875ZM95.625 54.3125L100.125 61.75V108H95.625V54.3125ZM86.625 39.5625L91.125 47.125V108H86.625V39.5625ZM77.625 24.625L82.125 32.25V108H77.625V24.625ZM79.1875 4.5H84.4375L148.062 108H142.812L79.1875 4.5ZM89.8125 4.5H95.125L158.688 108H153.312L89.8125 4.5ZM100.375 4.5H105.625L164.625 100.688V4.5H169.125V108C169.125 108 167.354 108 163.812 108L100.375 4.5ZM73.125 11.8125V108H68.625V4.5C68.625 4.5 70.4167 4.5 74 4.5L137.438 108H132.25L73.125 11.8125Z" fill="#F2F2F2" fill-opacity="0.025"/>
<path d="M203.625 9V4.5H271.125V9H203.625ZM203.625 18V13.5H271.125V18H203.625ZM203.625 27V22.5H271.125V27H253.125V108H248.625V27H244.125V108H239.625V27H235.125V108H230.625V27H226.125V108H221.625V27H203.625Z" fill="#F2F2F2" fill-opacity="0.025"/>
<path d="M328.125 108H323.625V4.5H328.125V108ZM319.125 108H314.625V4.5H319.125V108ZM310.125 108H305.625V4.5H310.125V108ZM337.125 85.5H385V90H337.125V94.5H385V99H337.125V103.5H385V108H332.625V4.5H385V9H337.125V13.5H385V18H337.125V22.5H385V27H337.125V45H361.688V49.5H337.125V54H361.688V58.5H337.125V63H361.688V67.5H337.125V85.5Z" fill="#F2F2F2" fill-opacity="0.025"/>
<path d="M454.625 56.5H481.75C485.875 56.5 489.354 55.1667 492.188 52.5C495.062 49.8333 496.5 46.0417 496.5 41.125C496.5 37.5 495 34.25 492 31.375C489 28.4583 485.583 27 481.75 27H443.125V108H438.625V22.5H481.75C486.833 22.5 491.312 24.3958 495.188 28.1875C499.062 31.9375 501 36.25 501 41.125C501 47.125 499.125 51.9375 495.375 55.5625C491.625 59.1875 487.083 61 481.75 61H454.625V56.5ZM454.625 65.5H481.75C488.25 65.5 493.833 63.2292 498.5 58.6875C503.167 54.1042 505.5 48.25 505.5 41.125C505.5 35 503.104 29.625 498.312 25C493.562 20.3333 488.042 18 481.75 18H434.125V108H429.625V13.5H481.75C486.708 13.5 491.354 14.7708 495.688 17.3125C500.062 19.8542 503.542 23.2708 506.125 27.5625C508.708 31.8125 510 36.3333 510 41.125C510 49.3333 507.208 56.2083 501.625 61.75C496.083 67.25 489.458 70 481.75 70H454.625V65.5ZM454.625 74.5H481.75C487.583 74.5 493 73.0625 498 70.1875C503 67.3125 507 63.3125 510 58.1875C513 53.0208 514.5 47.3333 514.5 41.125C514.5 35.5 513 30.2292 510 25.3125C507.042 20.3542 503.042 16.3958 498 13.4375C492.958 10.4792 487.542 9 481.75 9H425.125V108H420.625V4.5H481.75C488.292 4.5 494.438 6.1875 500.188 9.5625C505.938 12.8958 510.5 17.3958 513.875 23.0625C517.292 28.6875 519 34.7083 519 41.125C519 48.5417 517.396 55.0625 514.188 60.6875C511.021 66.3125 506.708 70.7083 501.25 73.875L512.875 108H508.125L497 76C495.333 76.6667 494.062 77.125 493.188 77.375L503.625 108H498.875L488.688 78.4375C488.312 78.5208 486.979 78.6667 484.688 78.875L494.375 108H489.625L480.062 79H476L485.125 108H480.375L471.188 79H454.625V74.5ZM452.125 108H447.625V31.5H481.75C484.542 31.5 486.938 32.4583 488.938 34.375C490.979 36.25 492 38.5 492 41.125C492 48.375 488.583 52 481.75 52H454.625V47.5H481.75C483.542 47.5 484.938 47.0417 485.938 46.125C486.979 45.1667 487.5 43.5 487.5 41.125C487.5 39.6667 486.938 38.4583 485.812 37.5C484.729 36.5 483.375 36 481.75 36H452.125V108Z" fill="#F2F2F2" fill-opacity="0.025"/>
<path d="M584.125 108H579.625V4.5H629.438V9H584.125V13.5H629.438V18H584.125V22.5H629.438V27H584.125V49.5H627.312V54H584.125V58.5H627.312V63H584.125V67.5H627.312V72H584.125V108ZM575.125 108H570.625V4.5H575.125V108ZM566.125 108H561.625V4.5H566.125V108ZM557.125 108H552.625V4.5H557.125V108Z" fill="#F2F2F2" fill-opacity="0.025"/>
<path d="M709.312 77.625L711.125 73.125H726.5L728.312 77.625H709.312ZM705.812 86.625L707.562 82.125H730L731.938 86.625H705.812ZM702.312 95.625L704.062 91.125H733.562L735.438 95.625H702.312ZM665.75 108H660.875L701.812 4.5H706.688L747.562 108H742.75L704.25 10.5625L665.75 108ZM704.812 21.25L707.375 27L675.375 108H670.562L704.812 21.25ZM709.812 33.125L712.188 39.3125L685.125 108H680.25L709.812 33.125ZM714.562 45.5L716.938 51.8125L694.75 108H689.938L714.562 45.5ZM776.625 108H771.75L730.875 4.5H735.688L776.625 108ZM726 4.5L766.938 108H762.125L721.188 4.5H726ZM716.312 4.5L757.25 108H752.375L711.5 4.5H716.312Z" fill="#F2F2F2" fill-opacity="0.025"/>
<path d="M886.75 39.875L883.062 42.3125C880.812 38.9792 877.875 36.3542 874.25 34.4375C870.667 32.4792 866.771 31.5 862.562 31.5C855.729 31.5 849.896 33.9167 845.062 38.75C840.229 43.5833 837.812 49.4167 837.812 56.25C837.812 63.0833 840.229 68.9167 845.062 73.75C849.896 78.5833 855.729 81 862.562 81C866.771 81 870.667 80.0208 874.25 78.0625C877.875 76.1042 880.812 73.4583 883.062 70.125L886.688 72.75C884.021 76.6667 880.562 79.7708 876.312 82.0625C872.062 84.3542 867.479 85.5 862.562 85.5C858.604 85.5 854.812 84.7292 851.188 83.1875C847.604 81.6458 844.5 79.5625 841.875 76.9375C839.25 74.3125 837.167 71.2083 835.625 67.625C834.083 64 833.312 60.2083 833.312 56.25C833.312 52.2917 834.083 48.5208 835.625 44.9375C837.167 41.3125 839.25 38.1875 841.875 35.5625C844.5 32.9375 847.604 30.8542 851.188 29.3125C854.812 27.7708 858.604 27 862.562 27C867.521 27 872.125 28.1667 876.375 30.5C880.625 32.7917 884.083 35.9167 886.75 39.875ZM894.188 34.75L890.438 37.1875C887.354 32.6875 883.354 29.125 878.438 26.5C873.562 23.8333 868.271 22.5 862.562 22.5C856.438 22.5 850.792 24.0208 845.625 27.0625C840.458 30.0625 836.354 34.1458 833.312 39.3125C830.312 44.4792 828.812 50.125 828.812 56.25C828.812 62.375 830.312 68.0208 833.312 73.1875C836.354 78.3542 840.458 82.4583 845.625 85.5C850.792 88.5 856.438 90 862.562 90C868.271 90 873.583 88.6667 878.5 86C883.417 83.3333 887.417 79.7292 890.5 75.1875L894.188 77.75C890.688 82.9167 886.146 87 880.562 90C875.021 93 869.021 94.5 862.562 94.5C855.646 94.5 849.25 92.7917 843.375 89.375C837.5 85.9583 832.854 81.3125 829.438 75.4375C826.021 69.5625 824.312 63.1667 824.312 56.25C824.312 49.3333 826.021 42.9375 829.438 37.0625C832.854 31.1875 837.5 26.5417 843.375 23.125C849.25 19.7083 855.646 18 862.562 18C869.021 18 875.021 19.5 880.562 22.5C886.146 25.5 890.688 29.5833 894.188 34.75ZM901.688 29.75L897.938 32.1875C894.021 26.4375 888.938 21.8958 882.688 18.5625C876.479 15.1875 869.771 13.5 862.562 13.5C856.771 13.5 851.229 14.625 845.938 16.875C840.646 19.125 836.083 22.1667 832.25 26C828.458 29.7917 825.438 34.3333 823.188 39.625C820.938 44.9167 819.812 50.4583 819.812 56.25C819.812 62.0417 820.938 67.5833 823.188 72.875C825.438 78.1667 828.458 82.7292 832.25 86.5625C836.083 90.3542 840.646 93.375 845.938 95.625C851.229 97.875 856.771 99 862.562 99C869.812 99 876.542 97.3125 882.75 93.9375C888.958 90.5625 894.021 86 897.938 80.25L901.562 82.9375C897.229 89.2708 891.625 94.2917 884.75 98C877.917 101.667 870.521 103.5 862.562 103.5C854.021 103.5 846.125 101.396 838.875 97.1875C831.625 92.9375 825.875 87.1875 821.625 79.9375C817.417 72.6875 815.312 64.7917 815.312 56.25C815.312 47.7083 817.417 39.8125 821.625 32.5625C825.875 25.3125 831.625 19.5833 838.875 15.375C846.125 11.125 854.021 9 862.562 9C870.562 9 878 10.875 884.875 14.625C891.75 18.3333 897.354 23.375 901.688 29.75ZM909.062 24.625L905.312 27.0625C900.562 20.1042 894.417 14.6042 886.875 10.5625C879.375 6.52083 871.271 4.5 862.562 4.5C855.562 4.5 848.854 5.875 842.438 8.625C836.062 11.3333 830.562 15 825.938 19.625C821.312 24.25 817.625 29.7708 814.875 36.1875C812.167 42.5625 810.812 49.25 810.812 56.25C810.812 63.25 812.167 69.9583 814.875 76.375C817.625 82.75 821.312 88.25 825.938 92.875C830.562 97.5 836.062 101.188 842.438 103.938C848.854 106.646 855.562 108 862.562 108C871.271 108 879.396 105.958 886.938 101.875C894.479 97.7917 900.625 92.2708 905.375 85.3125L909 88.0625C903.833 95.5625 897.167 101.521 889 105.938C880.833 110.312 872.021 112.5 862.562 112.5C854.938 112.5 847.646 111 840.688 108C833.771 105.042 827.792 101.062 822.75 96.0625C817.75 91.0208 813.75 85.0417 810.75 78.125C807.792 71.1667 806.312 63.875 806.312 56.25C806.312 48.625 807.792 41.3542 810.75 34.4375C813.75 27.4792 817.75 21.5 822.75 16.5C827.792 11.4583 833.771 7.45833 840.688 4.5C847.646 1.5 854.938 0 862.562 0C872.062 0 880.896 2.20833 889.062 6.625C897.229 11.0417 903.896 17.0417 909.062 24.625Z" fill="#F2F2F2" fill-opacity="0.025"/>
<path d="M965.125 108H960.625V4.5H965.125V108ZM956.125 108H951.625V4.5H956.125V108ZM947.125 108H942.625V4.5H947.125V108ZM974.125 85.5H1022V90H974.125V94.5H1022V99H974.125V103.5H1022V108H969.625V4.5H1022V9H974.125V13.5H1022V18H974.125V22.5H1022V27H974.125V45H998.688V49.5H974.125V54H998.688V58.5H974.125V63H998.688V67.5H974.125V85.5Z" fill="#F2F2F2" fill-opacity="0.025"/>
</svg>
