<svg width="466" height="108" viewBox="0 0 466 108" fill="none" xmlns="http://www.w3.org/2000/svg">
<path d="M0 0V58C0 67 2.35417 75.3542 7.0625 83.0625C11.7708 90.7292 18.1458 96.8125 26.1875 101.312C34.2708 105.771 43.0417 108 52.5 108C61.9583 108 70.7083 105.771 78.75 101.312C86.8333 96.8125 93.2292 90.7292 97.9375 83.0625C102.646 75.3542 105 67 105 58V0H100.5V58C100.5 64.125 99.2292 70 96.6875 75.625C94.1458 81.25 90.7292 86.1042 86.4375 90.1875C82.1458 94.2292 77.0208 97.4583 71.0625 99.875C65.1458 102.292 58.9583 103.5 52.5 103.5C46.0417 103.5 39.8333 102.292 33.875 99.875C27.9583 97.4583 22.8542 94.2292 18.5625 90.1875C14.2708 86.1042 10.8542 81.25 8.3125 75.625C5.77083 70 4.5 64.125 4.5 58V0H0Z" fill="#F2F2F2" fill-opacity="0.025"/>
<path d="M9 0V58C9 63.5417 10.1458 68.8542 12.4375 73.9375C14.7708 78.9792 17.875 83.3333 21.75 87C25.625 90.6667 30.25 93.5833 35.625 95.75C41 97.9167 46.625 99 52.5 99C58.375 99 64 97.9167 69.375 95.75C74.75 93.5833 79.375 90.6667 83.25 87C87.125 83.3333 90.2083 78.9792 92.5 73.9375C94.8333 68.8542 96 63.5417 96 58V0H91.5V58C91.5 64.5833 89.75 70.6875 86.25 76.3125C82.75 81.8958 78 86.3333 72 89.625C66.0417 92.875 59.5417 94.5 52.5 94.5C45.4583 94.5 38.9375 92.875 32.9375 89.625C26.9792 86.3333 22.25 81.8958 18.75 76.3125C15.25 70.6875 13.5 64.5833 13.5 58V0H9Z" fill="#F2F2F2" fill-opacity="0.025"/>
<path d="M18 0V58C18 62.3333 18.9167 66.4792 20.75 70.4375C22.5833 74.3542 25.0417 77.75 28.125 80.625C31.2083 83.5 34.875 85.7917 39.125 87.5C43.375 89.1667 47.8333 90 52.5 90C57.1667 90 61.625 89.1667 65.875 87.5C70.125 85.7917 73.7917 83.5 76.875 80.625C79.9583 77.75 82.4167 74.3542 84.25 70.4375C86.0833 66.4792 87 62.3333 87 58V0H82.5V58C82.5 62.9583 81.1458 67.5625 78.4375 71.8125C75.7708 76.0208 72.125 79.3542 67.5 81.8125C62.9167 84.2708 57.9167 85.5 52.5 85.5C47.0833 85.5 42.0625 84.2708 37.4375 81.8125C32.8542 79.3542 29.2083 76.0208 26.5 71.8125C23.8333 67.5625 22.5 62.9583 22.5 58V0H18Z" fill="#F2F2F2" fill-opacity="0.025"/>
<path d="M27 0V58C27 64.3333 29.5 69.75 34.5 74.25C39.5 78.75 45.5 81 52.5 81C59.5 81 65.5 78.75 70.5 74.25C75.5 69.75 78 64.3333 78 58V0H73.5V58C73.5 63.0833 71.4375 67.4375 67.3125 71.0625C63.2292 74.6875 58.2917 76.5 52.5 76.5C46.7083 76.5 41.75 74.6875 37.625 71.0625C33.5417 67.4375 31.5 63.0833 31.5 58V0H27Z" fill="#F2F2F2" fill-opacity="0.025"/>
<path d="M157.877 0C156.337 0.746528 154.899 1.57986 153.562 2.5C150.396 4.66667 147.667 7.25 145.375 10.25C143.125 13.25 141.438 16.5417 140.312 20.125C139.188 23.7083 138.625 27.5 138.625 31.5C138.625 36.5 139.417 41.1667 141 45.5C142.583 49.8333 144.854 53.6458 147.812 56.9375C150.812 60.2292 154.625 62.8125 159.25 64.6875C163.917 66.5625 169.125 67.5 174.875 67.5H181.625C183.458 67.5 184.708 67.9167 185.375 68.75C186.083 69.5417 186.438 70.625 186.438 72C186.438 73.4167 185.812 74.5208 184.562 75.3125C183.354 76.1042 180.958 76.5 177.375 76.5C170 76.5 164.854 75.8333 161.938 74.5L158.312 77.25C162.562 79.75 168.917 81 177.375 81C186.333 81 190.812 78 190.812 72C190.812 69.3333 190.104 67.1667 188.688 65.5C187.271 63.8333 184.958 63 181.75 63H174.875C168.208 63 162.438 61.5833 157.562 58.75C152.688 55.875 149.062 52.0833 146.688 47.375C144.312 42.6667 143.125 37.375 143.125 31.5C143.125 27.125 143.917 23.0417 145.5 19.25C147.125 15.4583 149.417 12.125 152.375 9.25C155.375 6.375 159.167 4.125 163.75 2.5C168.375 0.833333 173.542 0 179.25 0C186.542 0 193.375 1.0625 199.75 3.1875C206.125 5.27083 211.438 8.22917 215.688 12.0625L219.312 9.375C215.147 5.46986 210.052 2.34486 204.027 0H179.25H157.877Z" fill="#F2F2F2" fill-opacity="0.025"/>
<path d="M252.625 0V103.5H257.125V0H252.625Z" fill="#F2F2F2" fill-opacity="0.025"/>
<path d="M261.625 0V103.5H266.125V0H261.625Z" fill="#F2F2F2" fill-opacity="0.025"/>
<path d="M270.625 0V103.5H275.125V0H270.625Z" fill="#F2F2F2" fill-opacity="0.025"/>
<path d="M279.625 0V103.5H332V99H284.125V94.5H332V90H284.125V85.5H332V81H284.125V63H308.688V58.5H284.125V54H308.688V49.5H284.125V45H308.688V40.5H284.125V22.5H332V18H284.125V13.5H332V9H284.125V4.5H332V0H279.625Z" fill="#F2F2F2" fill-opacity="0.025"/>
<path d="M367.625 0V103.5H372.125V4.5H428.75C434.542 4.5 439.958 5.97917 445 8.9375C450.042 11.8958 454.042 15.8542 457 20.8125C460 25.7292 461.5 31 461.5 36.625C461.5 42.8333 460 48.5208 457 53.6875C454 58.8125 450 62.8125 445 65.6875C440 68.5625 434.583 70 428.75 70H401.625V74.5H418.188L427.375 103.5H432.125L423 74.5H427.062L436.625 103.5H441.375L431.688 74.375C433.979 74.1667 435.312 74.0208 435.688 73.9375L445.875 103.5H450.625L440.188 72.875C441.062 72.625 442.333 72.1667 444 71.5L455.125 103.5H459.875L448.25 69.375C453.708 66.2083 458.021 61.8125 461.188 56.1875C464.396 50.5625 466 44.0417 466 36.625C466 30.2083 464.292 24.1875 460.875 18.5625C457.5 12.8958 452.938 8.39583 447.188 5.0625C441.438 1.6875 435.292 0 428.75 0H367.625Z" fill="#F2F2F2" fill-opacity="0.025"/>
<path d="M174.875 40.5H182.438C188.938 40.5 194.562 41.9583 199.312 44.875C204.104 47.7917 207.667 51.6042 210 56.3125C212.333 60.9792 213.5 66.2083 213.5 72C213.5 76.375 212.688 80.4583 211.062 84.25C209.479 88.0417 207.188 91.375 204.188 94.25C201.229 97.125 197.438 99.3958 192.812 101.062C188.229 102.688 183.083 103.5 177.375 103.5C170.083 103.5 163.229 102.458 156.812 100.375C150.438 98.25 145.125 95.2708 140.875 91.4375L137.25 94.125C141.917 98.5 147.75 101.896 154.75 104.312C161.792 106.771 169.333 108 177.375 108C182.5 108 187.25 107.375 191.625 106.125C196.042 104.917 199.833 103.229 203 101.062C206.208 98.8542 208.938 96.25 211.188 93.25C213.479 90.25 215.188 86.9583 216.312 83.375C217.438 79.7917 218 76 218 72C218 67.0833 217.229 62.4792 215.688 58.1875C214.146 53.8542 211.917 50.0417 209 46.75C206.083 43.4167 202.354 40.7917 197.812 38.875C193.312 36.9583 188.25 36 182.625 36H174.875C173.083 36 171.854 35.6042 171.188 34.8125C170.521 34.0208 170.188 32.9167 170.188 31.5C170.188 30.0833 170.792 28.9792 172 28.1875C173.25 27.3958 175.667 27 179.25 27C186.583 27 191.708 27.6667 194.625 29L198.25 26.25C194 23.75 187.667 22.5 179.25 22.5C170.292 22.5 165.812 25.5 165.812 31.5C165.812 34.2083 166.521 36.3958 167.938 38.0625C169.354 39.6875 171.667 40.5 174.875 40.5Z" fill="#F2F2F2" fill-opacity="0.025"/>
<path d="M182 45H174.875C170 45 166.479 43.7708 164.312 41.3125C162.188 38.8542 161.125 35.5833 161.125 31.5C161.125 27.4583 162.562 24.2083 165.438 21.75C168.354 19.25 172.958 18 179.25 18C189 18 196.479 19.7917 201.688 23.375L205.25 20.625C202.292 18.3333 198.542 16.5833 194 15.375C189.458 14.125 184.542 13.5 179.25 13.5C171.708 13.5 166.042 15.1667 162.25 18.5C158.5 21.8333 156.625 26.1667 156.625 31.5C156.625 36.8333 158.146 41.1667 161.188 44.5C164.229 47.8333 168.792 49.5 174.875 49.5H181.938C189.188 49.5 194.75 51.625 198.625 55.875C202.542 60.125 204.5 65.5 204.5 72C204.5 78.5833 202.167 83.9792 197.5 88.1875C192.875 92.3958 186.167 94.5 177.375 94.5C171.417 94.5 165.833 93.7292 160.625 92.1875C155.458 90.6458 151.167 88.4792 147.75 85.6875L144.25 88.5C148.083 91.8333 152.896 94.4167 158.688 96.25C164.479 98.0833 170.708 99 177.375 99C187.375 99 195.146 96.4583 200.688 91.375C206.229 86.25 209 79.7917 209 72C209 64.3333 206.604 57.9167 201.812 52.75C197.062 47.5833 190.458 45 182 45Z" fill="#F2F2F2" fill-opacity="0.025"/>
<path d="M181.75 54H174.875C167.542 54 161.917 51.8958 158 47.6875C154.083 43.4375 152.125 38.0417 152.125 31.5C152.125 24.9167 154.438 19.5208 159.062 15.3125C163.729 11.1042 170.458 9 179.25 9C185.208 9 190.771 9.77083 195.938 11.3125C201.104 12.8542 205.396 15.0208 208.812 17.8125L212.312 15C208.479 11.6667 203.667 9.08333 197.875 7.25C192.125 5.41667 185.917 4.5 179.25 4.5C169.25 4.5 161.479 7.0625 155.938 12.1875C150.396 17.2708 147.625 23.7083 147.625 31.5C147.625 39.2917 150.021 45.75 154.812 50.875C159.646 55.9583 166.333 58.5 174.875 58.5H181.688C186.562 58.5 190.083 59.75 192.25 62.25C194.417 64.7083 195.5 67.9583 195.5 72C195.5 76.0417 194.042 79.3125 191.125 81.8125C188.25 84.2708 183.667 85.5 177.375 85.5C167.583 85.5 160.083 83.7083 154.875 80.125L151.312 82.875C154.271 85.1667 158.021 86.9375 162.562 88.1875C167.146 89.3958 172.083 90 177.375 90C184.917 90 190.562 88.3333 194.312 85C198.104 81.6667 200 77.3333 200 72C200 66.75 198.479 62.4375 195.438 59.0625C192.396 55.6875 187.833 54 181.75 54Z" fill="#F2F2F2" fill-opacity="0.025"/>
<path d="M428.75 52H401.625V56.5H428.75C434.083 56.5 438.625 54.6875 442.375 51.0625C446.125 47.4375 448 42.625 448 36.625C448 31.75 446.062 27.4375 442.188 23.6875C438.312 19.8958 433.833 18 428.75 18H385.625V103.5H390.125V22.5H428.75C432.583 22.5 436 23.9583 439 26.875C442 29.75 443.5 33 443.5 36.625C443.5 41.5417 442.062 45.3333 439.188 48C436.354 50.6667 432.875 52 428.75 52Z" fill="#F2F2F2" fill-opacity="0.025"/>
<path d="M428.75 61H401.625V65.5H428.75C436.458 65.5 443.083 62.75 448.625 57.25C454.208 51.7083 457 44.8333 457 36.625C457 31.8333 455.708 27.3125 453.125 23.0625C450.542 18.7708 447.062 15.3542 442.688 12.8125C438.354 10.2708 433.708 9 428.75 9H376.625V103.5H381.125V13.5H428.75C435.042 13.5 440.562 15.8333 445.312 20.5C450.104 25.125 452.5 30.5 452.5 36.625C452.5 43.75 450.167 49.6042 445.5 54.1875C440.833 58.7292 435.25 61 428.75 61Z" fill="#F2F2F2" fill-opacity="0.025"/>
<path d="M394.625 103.5H399.125V31.5H428.75C430.375 31.5 431.729 32 432.812 33C433.938 33.9583 434.5 35.1667 434.5 36.625C434.5 39 433.979 40.6667 432.938 41.625C431.938 42.5417 430.542 43 428.75 43H401.625V47.5H428.75C435.583 47.5 439 43.875 439 36.625C439 34 437.979 31.75 435.938 29.875C433.938 27.9583 431.542 27 428.75 27H394.625V103.5Z" fill="#F2F2F2" fill-opacity="0.025"/>
</svg>
