<svg width="161" height="34" viewBox="0 0 161 34" fill="none" xmlns="http://www.w3.org/2000/svg">
<path d="M0 0V18.1213C0 20.9338 0.735677 23.5445 2.20703 25.9533C3.67839 28.3491 5.67057 30.2502 8.18359 31.6564C10.7096 33.0497 13.4505 33.7463 16.4062 33.7463C19.362 33.7463 22.0964 33.0497 24.6094 31.6564C27.1354 30.2502 29.1341 28.3491 30.6055 25.9533C32.0768 23.5445 32.8125 20.9338 32.8125 18.1213V0H31.4062V18.1213C31.4062 20.0353 31.0091 21.8713 30.2148 23.6291C29.4206 25.3869 28.3529 26.9038 27.0117 28.1799C25.6706 29.4429 24.069 30.452 22.207 31.2072C20.3581 31.9624 18.4245 32.34 16.4062 32.34C14.388 32.34 12.4479 31.9624 10.5859 31.2072C8.73698 30.452 7.14193 29.4429 5.80078 28.1799C4.45964 26.9038 3.39193 25.3869 2.59766 23.6291C1.80339 21.8713 1.40625 20.0353 1.40625 18.1213V0H0Z" fill="#F2F2F2" fill-opacity="1"/>
<path d="M2.8125 0V18.1213C2.8125 19.853 3.17057 21.5132 3.88672 23.1017C4.61589 24.6773 5.58594 26.0379 6.79688 27.1838C8.00781 28.3296 9.45312 29.2411 11.1328 29.9182C12.8125 30.5952 14.5703 30.9338 16.4062 30.9338C18.2422 30.9338 20 30.5952 21.6797 29.9182C23.3594 29.2411 24.8047 28.3296 26.0156 27.1838C27.2266 26.0379 28.1901 24.6773 28.9062 23.1017C29.6354 21.5132 30 19.853 30 18.1213V0H28.5938V18.1213C28.5938 20.1786 28.0469 22.0861 26.9531 23.8439C25.8594 25.5887 24.375 26.9754 22.5 28.0041C20.638 29.0197 18.6068 29.5275 16.4062 29.5275C14.2057 29.5275 12.168 29.0197 10.293 28.0041C8.43099 26.9754 6.95312 25.5887 5.85938 23.8439C4.76562 22.0861 4.21875 20.1786 4.21875 18.1213V0H2.8125Z" fill="#F2F2F2" fill-opacity="1"/>
<path d="M5.625 0V18.1213C5.625 19.4754 5.91146 20.771 6.48438 22.008C7.05729 23.232 7.82552 24.2932 8.78906 25.1916C9.7526 26.09 10.8984 26.8062 12.2266 27.34C13.5547 27.8609 14.9479 28.1213 16.4062 28.1213C17.8646 28.1213 19.2578 27.8609 20.5859 27.34C21.9141 26.8062 23.0599 26.09 24.0234 25.1916C24.987 24.2932 25.7552 23.232 26.3281 22.008C26.901 20.771 27.1875 19.4754 27.1875 18.1213V0H25.7812V18.1213C25.7812 19.6708 25.3581 21.1096 24.5117 22.4377C23.6784 23.7528 22.5391 24.7945 21.0938 25.5627C19.6615 26.3309 18.099 26.715 16.4062 26.715C14.7135 26.715 13.1445 26.3309 11.6992 25.5627C10.2669 24.7945 9.1276 23.7528 8.28125 22.4377C7.44792 21.1096 7.03125 19.6708 7.03125 18.1213V0H5.625Z" fill="#F2F2F2" fill-opacity="1"/>
<path d="M8.4375 0V18.1213C8.4375 20.1004 9.21875 21.7932 10.7812 23.1994C12.3438 24.6057 14.2188 25.3088 16.4062 25.3088C18.5938 25.3088 20.4688 24.6057 22.0312 23.1994C23.5938 21.7932 24.375 20.1004 24.375 18.1213V0H22.9688V18.1213C22.9688 19.7098 22.3242 21.0705 21.0352 22.2033C19.7591 23.3361 18.2161 23.9025 16.4062 23.9025C14.5964 23.9025 13.0469 23.3361 11.7578 22.2033C10.4818 21.0705 9.84375 19.7098 9.84375 18.1213V0H8.4375Z" fill="#F2F2F2" fill-opacity="1"/>
<path d="M54.5788 0C54.1007 0.232337 53.6538 0.491512 53.2383 0.777527C52.2487 1.45461 51.3958 2.2619 50.6797 3.1994C49.9766 4.1369 49.4492 5.16555 49.0977 6.28534C48.7461 7.40513 48.5703 8.59003 48.5703 9.84003C48.5703 11.4025 48.8177 12.8609 49.3125 14.215C49.8073 15.5692 50.5169 16.7606 51.4414 17.7892C52.3789 18.8179 53.5703 19.6252 55.0156 20.2111C56.474 20.7971 58.1016 21.09 59.8984 21.09H62.0078C62.5807 21.09 62.9714 21.2202 63.1797 21.4807C63.401 21.728 63.5117 22.0666 63.5117 22.4963C63.5117 22.939 63.3164 23.284 62.9258 23.5314C62.5482 23.7788 61.7995 23.9025 60.6797 23.9025C58.375 23.9025 56.7669 23.6942 55.8555 23.2775L54.7227 24.1369C56.0508 24.9182 58.0365 25.3088 60.6797 25.3088C63.4792 25.3088 64.8789 24.3713 64.8789 22.4963C64.8789 21.6629 64.6576 20.9859 64.2148 20.465C63.7721 19.9442 63.0495 19.6838 62.0469 19.6838H59.8984C57.8151 19.6838 56.0117 19.2411 54.4883 18.3557C52.9648 17.4572 51.832 16.2723 51.0898 14.801C50.3477 13.3296 49.9766 11.676 49.9766 9.84003C49.9766 8.47284 50.224 7.1968 50.7188 6.0119C51.2266 4.82701 51.9427 3.78534 52.8672 2.8869C53.8047 1.98846 54.9896 1.28534 56.4219 0.777527C57.7674 0.292649 59.2597 0.0334733 60.8986 0H54.5788Z" fill="#F2F2F2" fill-opacity="1"/>
<path d="M61.6819 0C63.8048 0.0381168 65.8015 0.368907 67.6719 0.992371C69.6641 1.64341 71.3242 2.56789 72.6523 3.76581L73.7852 2.92596C72.4856 1.70767 70.8966 0.732351 69.0181 0H61.6819Z" fill="#F2F2F2" fill-opacity="1"/>
<path d="M89.1953 0V32.34H90.6016V0H89.1953Z" fill="#F2F2F2" fill-opacity="1"/>
<path d="M92.0078 0V32.34H93.4141V0H92.0078Z" fill="#F2F2F2" fill-opacity="1"/>
<path d="M94.8203 0V32.34H96.2266V0H94.8203Z" fill="#F2F2F2" fill-opacity="1"/>
<path d="M97.6328 0V32.34H114V30.9338H99.0391V29.5275H114V28.1213H99.0391V26.715H114V25.3088H99.0391V19.6838H106.715V18.2775H99.0391V16.8713H106.715V15.465H99.0391V14.0588H106.715V12.6525H99.0391V7.02753H114V5.62128H99.0391V4.21503H114V2.80878H99.0391V1.40253H114V0H97.6328Z" fill="#F2F2F2" fill-opacity="1"/>
<path d="M130.195 0V32.34H131.602V1.40253H149.297C151.107 1.40253 152.799 1.86477 154.375 2.78925C155.951 3.71372 157.201 4.9507 158.125 6.50018C159.062 8.03664 159.531 9.68378 159.531 11.4416C159.531 13.3817 159.062 15.159 158.125 16.7736C157.188 18.3752 155.938 19.6252 154.375 20.5236C152.812 21.4221 151.12 21.8713 149.297 21.8713H140.82V23.2775H145.996L148.867 32.34H150.352L147.5 23.2775H148.77L151.758 32.34H153.242L150.215 23.2385C150.931 23.1734 151.348 23.1278 151.465 23.1017L154.648 32.34H156.133L152.871 22.7697C153.145 22.6916 153.542 22.5484 154.062 22.34L157.539 32.34H159.023L155.391 21.676C157.096 20.6864 158.444 19.3127 159.434 17.5549C160.436 15.7971 160.938 13.7593 160.938 11.4416C160.938 9.43638 160.404 7.55487 159.336 5.79706C158.281 4.02622 156.855 2.61997 155.059 1.57831C153.349 0.574785 151.527 0.0486827 149.594 0H130.195Z" fill="#F2F2F2" fill-opacity="1"/>
<path d="M59.8984 12.6525H62.2617C64.293 12.6525 66.0508 13.1083 67.5352 14.0197C69.0326 14.9312 70.1458 16.1226 70.875 17.5939C71.6042 19.0523 71.9688 20.6864 71.9688 22.4963C71.9688 23.8635 71.7148 25.1395 71.207 26.3244C70.7122 27.5093 69.9961 28.551 69.0586 29.4494C68.1341 30.3478 66.9492 31.0575 65.5039 31.5783C64.0716 32.0861 62.4635 32.34 60.6797 32.34C58.401 32.34 56.2591 32.0145 54.2539 31.3635C52.2617 30.6994 50.6016 29.7684 49.2734 28.5705L48.1406 29.4103C49.599 30.7775 51.4219 31.8387 53.6094 32.5939C55.8099 33.3622 58.1667 33.7463 60.6797 33.7463C62.2812 33.7463 63.7656 33.551 65.1328 33.1603C66.513 32.7827 67.6979 32.2554 68.6875 31.5783C69.6901 30.8882 70.543 30.0744 71.2461 29.1369C71.9622 28.1994 72.4961 27.1708 72.8477 26.051C73.1992 24.9312 73.375 23.7463 73.375 22.4963C73.375 20.9598 73.1341 19.521 72.6523 18.1799C72.1706 16.8257 71.474 15.6343 70.5625 14.6057C69.651 13.564 68.4857 12.7437 67.0664 12.1447C65.6602 11.5458 64.0781 11.2463 62.3203 11.2463H59.8984C59.3385 11.2463 58.9544 11.1226 58.7461 10.8752C58.5378 10.6278 58.4336 10.2827 58.4336 9.84003C58.4336 9.39732 58.6224 9.05227 59 8.80487C59.3906 8.55748 60.1458 8.43378 61.2656 8.43378C63.5573 8.43378 65.1589 8.64211 66.0703 9.05878L67.2031 8.1994C65.875 7.41815 63.8958 7.02753 61.2656 7.02753C58.4661 7.02753 57.0664 7.96503 57.0664 9.84003C57.0664 10.6864 57.2878 11.37 57.7305 11.8908C58.1732 12.3986 58.8958 12.6525 59.8984 12.6525Z" fill="#F2F2F2" fill-opacity="1"/>
<path d="M62.125 14.0588H59.8984C58.375 14.0588 57.2747 13.6747 56.5977 12.9064C55.9336 12.1382 55.6016 11.1161 55.6016 9.84003C55.6016 8.57701 56.0508 7.56138 56.9492 6.79315C57.8607 6.0119 59.2995 5.62128 61.2656 5.62128C64.3125 5.62128 66.6497 6.18117 68.2773 7.30096L69.3906 6.44159C68.4661 5.72544 67.2943 5.17857 65.875 4.80096C64.4557 4.41034 62.9193 4.21503 61.2656 4.21503C58.9089 4.21503 57.138 4.73586 55.9531 5.77753C54.7812 6.81919 54.1953 8.17336 54.1953 9.84003C54.1953 11.5067 54.6706 12.8609 55.6211 13.9025C56.5716 14.9442 57.9974 15.465 59.8984 15.465H62.1055C64.3711 15.465 66.1094 16.1291 67.3203 17.4572C68.5443 18.7853 69.1562 20.465 69.1562 22.4963C69.1562 24.5536 68.4271 26.2398 66.9688 27.5549C65.5234 28.87 63.4271 29.5275 60.6797 29.5275C58.8177 29.5275 57.0729 29.2866 55.4453 28.8049C53.8307 28.3231 52.4896 27.646 51.4219 26.7736L50.3281 27.6525C51.526 28.6942 53.0299 29.5015 54.8398 30.0744C56.6497 30.6473 58.5964 30.9338 60.6797 30.9338C63.8047 30.9338 66.2331 30.1395 67.9648 28.551C69.6966 26.9494 70.5625 24.9312 70.5625 22.4963C70.5625 20.1004 69.8138 18.0952 68.3164 16.4807C66.832 14.8661 64.7682 14.0588 62.125 14.0588Z" fill="#F2F2F2" fill-opacity="1"/>
<path d="M62.0469 16.8713H59.8984C57.6068 16.8713 55.849 16.2137 54.625 14.8986C53.401 13.5705 52.7891 11.8843 52.7891 9.84003C52.7891 7.78273 53.5117 6.09654 54.957 4.78143C56.4154 3.46633 58.5182 2.80878 61.2656 2.80878C63.1276 2.80878 64.8659 3.04966 66.4805 3.53143C68.0951 4.0132 69.4362 4.69029 70.5039 5.56268L71.5977 4.68378C70.3997 3.64211 68.8958 2.83482 67.0859 2.2619C65.2891 1.68899 63.349 1.40253 61.2656 1.40253C58.1406 1.40253 55.7122 2.20331 53.9805 3.80487C52.2487 5.39341 51.3828 7.40513 51.3828 9.84003C51.3828 12.2749 52.1315 14.2932 53.6289 15.8947C55.1393 17.4833 57.2292 18.2775 59.8984 18.2775H62.0273C63.5508 18.2775 64.651 18.6682 65.3281 19.4494C66.0052 20.2176 66.3438 21.2333 66.3438 22.4963C66.3438 23.7593 65.888 24.7814 64.9766 25.5627C64.0781 26.3309 62.6458 26.715 60.6797 26.715C57.6198 26.715 55.276 26.1551 53.6484 25.0353L52.5352 25.8947C53.4596 26.6109 54.6315 27.1642 56.0508 27.5549C57.4831 27.9325 59.026 28.1213 60.6797 28.1213C63.0365 28.1213 64.8008 27.6004 65.9727 26.5588C67.1576 25.5171 67.75 24.1629 67.75 22.4963C67.75 20.8557 67.2747 19.508 66.3242 18.4533C65.3737 17.3986 63.9479 16.8713 62.0469 16.8713Z" fill="#F2F2F2" fill-opacity="1"/>
<path d="M149.297 16.2463H140.82V17.6525H149.297C150.964 17.6525 152.383 17.0861 153.555 15.9533C154.727 14.8205 155.312 13.3166 155.312 11.4416C155.312 9.91815 154.707 8.5705 153.496 7.39862C152.285 6.21372 150.885 5.62128 149.297 5.62128H135.82V32.34H137.227V7.02753H149.297C150.495 7.02753 151.562 7.48326 152.5 8.39471C153.438 9.29315 153.906 10.3088 153.906 11.4416C153.906 12.978 153.457 14.1629 152.559 14.9963C151.673 15.8296 150.586 16.2463 149.297 16.2463Z" fill="#F2F2F2" fill-opacity="1"/>
<path d="M149.297 19.0588H140.82V20.465H149.297C151.706 20.465 153.776 19.6057 155.508 17.8869C157.253 16.1551 158.125 14.0067 158.125 11.4416C158.125 9.94419 157.721 8.53143 156.914 7.20331C156.107 5.86216 155.02 4.79445 153.652 4.00018C152.298 3.20591 150.846 2.80878 149.297 2.80878H133.008V32.34H134.414V4.21503H149.297C151.263 4.21503 152.988 4.94419 154.473 6.40253C155.97 7.84784 156.719 9.52753 156.719 11.4416C156.719 13.6682 155.99 15.4976 154.531 16.9299C153.073 18.3491 151.328 19.0588 149.297 19.0588Z" fill="#F2F2F2" fill-opacity="1"/>
<path d="M138.633 32.34H140.039V9.84003H149.297C149.805 9.84003 150.228 9.99628 150.566 10.3088C150.918 10.6083 151.094 10.9859 151.094 11.4416C151.094 12.1838 150.931 12.7046 150.605 13.0041C150.293 13.2905 149.857 13.4338 149.297 13.4338H140.82V14.84H149.297C151.432 14.84 152.5 13.7072 152.5 11.4416C152.5 10.6213 152.181 9.91815 151.543 9.33221C150.918 8.73326 150.169 8.43378 149.297 8.43378H138.633V32.34Z" fill="#F2F2F2" fill-opacity="1"/>
</svg>
